<?xml version="1.0" encoding="UTF-8"?>
<svg viewBox="0 0 759.72 245.1" xmlns="http://www.w3.org/2000/svg">
 <defs>
  <linearGradient id="c" x1=".52409" x2=".52" y1=".83102" y2=".27189">
   <stop stop-color="#fff" stop-opacity=".229" offset="0"/>
   <stop stop-color="#fff" stop-opacity="0" offset="1"/>
  </linearGradient>
  <linearGradient id="d" x1=".45641" x2=".44242" y1=".28596" y2="1.4511">
   <stop stop-color="#4e9a06" offset="0"/>
   <stop stop-color="#295103" offset="1"/>
  </linearGradient>
 </defs>
 <g stroke-linecap="round" stroke-linejoin="bevel" stroke-width="4">
  <path d="m-6.4683 185.55l97.391-9.1682 76.281 9.1682 43.703-0.0828 9.5328 29.519-4.0944-46.879 66.075 9.293 80.239-8.955c17.939 3.0945 49.541 11.084 69.941 11.023l112.02 2.0123c19.548 47.111 7.7556 8.4522 65.721-6.001 32.46-8.0938 133.7 9.5833 160.81 10.07v57.626h-777.62v-57.626z" fill="#484b2a"/>
  <path d="m423.51-28.876l-0.597 9.2741-7.2691 36.826s-0.68185 12.122-0.77261 13.731c-0.13946 0.47125-4.5099 15.31-5.5484 18.818-6.7152 0.07724-13.039 2.3085-18.963 6.1677-21.269-0.88541-38.624 19.454-52.253 46.776l1.3695-32.369 0.4214-2.7462-0.3511 1.0805 0.2458-5.7626-1.4398 9.4541-8.3578 25.616c-4.4924-0.25902-9.3275-2.2867-14.187-4.2768l2.7391-18.728 0.6321-2.4762-0.4214 0.9453 0.8077-5.5825-2.3528 9.004-6.6721 14.812c-3.4692-1.2474-6.8892-2.1693-10.149-2.0709 13.009-29.734 32.139-49.605 60.26-41.148-2.9486-1.4041-5.8001-2.4384-8.5684-3.1964-30.199-11.253-50.325 13.582-63.666 48.802l1.3695-23.41 0.4214-2.4762-0.316 0.9454 0.316-5.6274-1.5802 9.2741-9.8678 28.768c-0.27448 0.30512-0.57178 0.60725-0.84274 0.94551-6.3021 7.868-12.376 16.723-18.155 26.022-1.1804-0.32788-2.3355-0.58633-3.4765-0.81035-0.66562-0.17981-1.3487-0.34894-2.0016-0.49516 4.9927-13.515 10.396-26.944 16.224-39.348 6.7712-10.687 13.802-20.238 20.93-27.822 5.3657-5.4707 10.805-9.9753 16.224-13.191-0.2326 0.040329-0.46985 0.089462-0.70233 0.13496 0.55057-0.33434 1.0998-0.6853 1.6505-0.9903-1.5328 0.44145-3.0662 1.0245-4.6002 1.7106-5.4402 1.5764-10.836 4.537-16.154 8.5989 2.0238-3.0595 4.0985-5.9173 6.1805-8.5989 4.5759-5.6682 9.2598-10.441 14.047-14.136-0.27081 0.086037-0.53772 0.22171-0.80768 0.3151 0.55371-0.43837 1.0938-0.90041 1.6505-1.3057-1.527 0.66932-3.0237 1.5052-4.5301 2.4312-10.598 4.7115-20.557 14.894-29.744 28.362-3.648 1.9385-7.2876 4.3749-10.921 7.2483l0.3863-2.7463-0.8077 3.0614c-3.7276 2.9824-7.4208 6.4215-11.097 10.22l0.8077-5.2224 0.7023-2.6562-0.4565 0.9906 0.8779-5.6275-2.4933 9.094-3.7224 8.0136c-6.9609-0.9409-14.584-4.1401-21.456-4.2769l0.9481-6.4828 0.6321-2.4762-0.4214 0.9453 0.8077-5.5825-2.3528 9.004-2.1421 4.7272c-4.1823 0.44299-7.9759 2.3292-11.062 7.0231 7.3885-15.818 15.412-30.017 23.879-40.923 1.2852-1.5921 2.5595-3.0969 3.8628-4.5469 1.5364 0.21983 3.1071 0.50722 4.7056 0.90041-1.3892-0.58003-2.7632-1.0904-4.1086-1.5307 3.1493-3.4437 6.3444-6.4561 9.5868-8.9589-0.27075 0.086037-0.53769 0.22171-0.80768 0.3151 0.55374-0.43837 1.0938-0.90041 1.6505-1.3057-1.527 0.66932-3.0236 1.5052-4.53 2.4312-3.4904 1.5517-6.9064 3.6811-10.254 6.3478-0.10642-0.023918-0.20993-0.067001-0.31607-0.090034-10.926-3.4315-20.418-2.3016-28.655 2.206-29.981-6.7612-49.332 23.593-61.735 62.173l0.4565-7.5634 0.7375-4.727c7.3018-15.968 15.238-30.493 23.633-41.779 5.066-6.5288 10.261-12.047 15.592-16.162-0.25684 0.081696-0.51642 0.18193-0.77252 0.27013 0.54108-0.4276 1.1065-0.81973 1.6504-1.2155-1.527 0.6692-3.0588 1.4601-4.5651 2.386-7.8277 3.48-15.291 9.9675-22.369 18.548-17.332 4.0984-35.043 21.453-51.376 43.76l2.6688-16.838c0.66785-0.90216 1.3418-1.7929 2.0368-2.6561 1.9009-0.595 3.8387-1.089 5.8294-1.4407-1.683 0.042084-3.3331 0.2121-4.9514 0.40515 6.1917-7.4242 13.42-13.304 21.913-16.928-3.8782 1.0273-7.5057 2.4471-10.921 4.1868-2.4794-1.6716-4.9112-3.0595-7.3042-4.1868-3.8538-2.2337-7.5983-3.7915-11.237-4.727 11.158-11.9 25.037-17.441 42.315-12.246-2.9427-1.4013-5.7701-2.4387-8.5333-3.1965-18.691-6.9697-33.549-0.093384-45.3 14.496-5.6577 0.55333-11.005 2.6597-16.083 5.9426-4.0354 1.1372-7.8143 2.6784-11.343 4.592-8.7126 3.7239-16.028 9.4945-22.194 16.702 0.27946-2.409 0.40415-3.5846 0.66721-5.8527l0.913-6.1676 0.6321-2.4762-0.4214 0.9455 0.8077-5.5825-0.6672 2.6112c1.8226-15.719 5.4079-46.731 5.4079-46.731l0.8779-39.438 0.316-2.6561-0.2809 0.9903 0.1405-5.6724-1.0886 9.3191-9.5868 35.791s-4.6815 42.628-8.744 79.686l-3.7575 8.3286s-0.67157 2.6678-0.70233 2.7913c-3.3202 7.8633-5.9732 16.285-8.1119 24.896-28.176 28.72-32.307 100.76-32.307 100.76l3.1605 0.4953c-0.002067 0.034332-0.035117 0.27017-0.035117 0.27017l4.7056 0.7203s1.8866-53.683 21.14-86.574c-0.82926 4.6838-1.5223 9.3805-2.107 14.001-8.1314 32.76-16.366 66.143-16.61 67.71l4.8812 2.7463 0.0351-0.0901 4.7056 2.2061c0.003315-0.009705 0.031062-0.16739 0.035117-0.18008l2.704 1.1255c-0.007168 0.045197-0.070227 0.40512-0.070227 0.40512l5.8645 2.386s0.24938-1.7367 0.6321-4.1868l0.8428 0.1352c-0.022997 0.25247-0.17354 1.692-0.17558 1.7556l3.2307 1.2605v0.13498l0.7374 0.1352 0.5619 0.225v-0.089813l3.301 0.6301c0.21961-1.1864 4.9155-41.059 10.043-85.088 3.0434-9.8593 6.4437-19.798 10.289-29.308 2.6856-0.6049 5.5182-0.92924 8.4982-0.90042-0.25933 0.989-0.74864 2.7988-1.0535 3.9618-14.609 31.125-20.914 69.163-23.423 89.815-1.776 6.8965-3.1416 12.209-3.2307 12.74l1.8261 1.0805c-0.049248 0.66034-0.10535 1.3055-0.10535 1.3057l3.4414 1.2605s0.048862-0.50989 0.070232-0.72031l0.4565 0.225c-0.010895 0.15167-0.035126 0.6304-0.035126 0.6304l3.4414 1.2605s0.032593-0.20306 0.035118-0.22522l0.4565 0.2252c0.67247-1.8773 13.831-51.571 23.458-87.924-3.2612 17.397-5.5266 34.222-7.0584 48.307-9.0798 20.084-14.468 34.08-14.468 34.08l4.3545 2.0708c-0.01992 0.05014-0.28093 0.72049-0.28093 0.72037l5.7591 2.7463s1.0128-2.4385 1.6856-4.0968c-0.029564 0.59372-0.070236 1.5307-0.070236 1.5306l4.0735 0.8555c-0.001991 0.044647-0.035118 0.40527-0.035118 0.40506l6.0752 1.3057s0.33075-12.994 2.0368-32.189c2.188-4.8723 4.5163-9.9296 7.1287-15.487-0.36378 6.6879-0.54956 12.936-0.59698 18.593-3.4551 13.319-6.0128 23.251-6.1454 24.041l3.8628 2.251 0.0702 0.045 0.9481 0.5402 0.0351-0.0899 1.9665 0.9903c0.005173 0.066071 0.035118 0.4053 0.035118 0.4053l1.1588 0.1801 1.51 0.7203c0.00972-0.02713 0.12445-0.44406 0.14047-0.49515l0.7726 0.0898s-0.058426-1.0344-0.10535-2.5211c0.11921-0.42834 0.22893-0.73178 0.38628-1.3055 0.11996 2.2009 0.2107 3.7816 0.2107 3.7816l3.5468 0.4502s-0.16422-7.3493 0.14046-18.728c2.5635-9.5777 5.9354-22.343 9.3761-35.296-0.85611 7.5704-1.414 14.776-1.791 21.384-5.3052 16.168-6.9531 26.967-6.9531 26.967l3.8979 1.8457c-0.057671 0.34207-0.21069 1.0807-0.21069 1.0805l2.704 1.2605c0.058563 2.3018 0.10535 3.9169 0.10535 3.9169l3.5468 0.6754s8.85e-4 -0.34076 0-0.40533l0.5267 0.135c0.001228 0.028412 0 0.27014 0 0.27036l3.3361 0.5852c-0.008011 0.035583-0.14046 0.63022-0.14046 0.63022l6.0752 1.3057s0.66904-2.8223 1.4398-6.0778l3.7224 1.3506c-0.015785 0.049103-0.24582 0.72024-0.24582 0.72024l5.9347 2.1159s0.34522-0.99725 0.38628-1.1254l5.3377 1.1254s-0.01078-1.1099 0.03511-3.0163l2.8444 1.1705 0.2107 0.0449 0.8428 0.3602v-0.089813l4.9163 1.5305c0.033203-0.1348 0.30357-1.7612 0.42139-2.4309l3.4414 0.7203c-0.001984 0.044464-0.035095 0.40506-0.035095 0.40506l6.0751 1.3055s1.1663-43.709 9.8678-89.59c0.55804-1.2559 1.1177-2.5225 1.6856-3.7817 4.1422 8.9122 8.1403 18.757 11.975 24.851-13.978 34.759-22.475 64.154-22.475 64.154l3.3361 1.1706c-0.060211 0.20584-0.31607 1.0804-0.31607 1.0804l5.9347 2.1159s3.7163-12.935 10.219-31.829c-0.82321 12.404-1.149 21.726-1.2642 26.382-0.11105 0.50232-0.56186 2.3861-0.56186 2.386l0.4916 0.0902c-0.003235 0.21622 0 0.90024 0 0.90042l3.9682 0.6301c-3.66e-4 0.00174-0.035126 0.13519-0.035126 0.13519l0.1405 0.0449c-2.44e-4 0.019836 0 0.27029 0 0.27029l5.408 0.8553 0.5267 0.1351s-3.1e-5 -0.044769 0-0.044952l0.1756 0.045s3.66e-4 -0.60126 0-0.76532c0.035614-0.15857 0.39182-1.5724 0.52676-2.161l2.5986 0.5403c-0.040558 0.20352-0.21072 1.0805-0.21072 1.0805l6.0752 1.3055s0.14093-0.81271 0.1756-0.99033l2.107 0.9903s0.66791-1.6336 0.8428-2.0708l2.0719 0.7653v-0.090088l3.5819 1.0354 0.7726 0.3602s-4.88e-4 -0.17001 0-0.18012l0.5618 0.1801c0.039063-0.17065 0.33371-2.0506 0.49167-3.0614l1.6505 0.9455 0.0351-0.09 4.7056 2.2059c0.019684-0.05722 0.23517-0.87338 0.28094-1.0355l0.4565 0.0901c-0.001434 0.023193 0 0.22501 0 0.22501l4.7407 0.7204s0.03476-1.5133 0.1756-3.7366l2.423 0.8553c-0.017487 0.054657-0.24585 0.76541-0.24585 0.76541l5.9347 2.1159s0.84656-2.562 1.4398-4.3669l3.7224 2.161 0.0351-0.0901 4.7056 2.296c0.03421-0.09552 0.34619-1.3701 0.45651-1.7557l3.6521 1.7557s0.21344-0.58569 0.24579-0.67526l3.0903 0.6753s0.37643-1.5831 0.45651-1.9358l4.1086 1.9358c0.38989-1.1338 6.254-24.358 12.677-49.792 7.9587-17.485 17.823-37.31 28.936-55.825-23.506 47.971-38.839 101.25-38.839 101.25l3.3361 1.1706c-0.06015 0.20584-0.31604 1.0804-0.31604 1.0804l5.9347 2.1159s12.544-44.143 32.483-88.96c-5.9048 37.437-13.139 83.482-13.274 85.448l4.0384 1.6656 0.2458 0.09 0.8077 0.315v-0.089813l4.8812 1.5305c0.024017-0.09729 0.24728-1.3751 0.31607-1.7557l0.2458 0.0452c-0.001984 0.044464-0.035126 0.40506-0.035126 0.40506l6.0752 1.3055s0.046906-1.5677 0.14047-3.8267l3.0551 1.7108 0.0351-0.09 4.7056 2.2059c0.029083-0.084473 0.33597-1.2197 0.42139-1.5305l3.2307 1.5305s2.3628-6.5503 6.4966-16.882c-1.4082 7.6263-1.8261 12.2-1.8261 12.2l4.0033 1.4407c-0.03714 0.35806-0.10538 1.1256-0.10538 1.1256l5.9348 2.1159s0.048798-0.67212 0.07019-0.94537l1.6856 0.1801c-9.77e-4 0.033905 0 0.27011 0 0.27011l4.7407 0.4952s-0.015045-0.50442 0-1.3055l3.1956 1.3055s0.16971-1.1955 0.45654-3.0614l4.6705 1.7559v-0.090088l4.9163 1.3956c0.10242-0.44705 0.74789-4.6528 1.5803-10.265l3.2307 1.3508c-0.007111 0.045197-0.07019 0.40515-0.07019 0.40515l5.8995 2.386s6.2652-44.97 20.649-89.77c1.4606 2.6129 2.9182 5.2851 4.3545 7.9685-18.773 33.186-21.842 86.438-21.842 86.438l3.1605 0.4953c-0.002075 0.034332-0.035126 0.26996-0.035126 0.26996l4.7056 0.7204s1.7005-47.612 17.98-80.631c0.59247 1.0568 1.1733 2.0764 1.7559 3.0614-0.25424 1.7718-0.51685 3.5549-0.73749 5.3124-8.0985 32.629-16.333 65.835-16.575 67.395l4.9164 2.7463 0.0351-0.09 4.6705 2.2059c0.19879-0.57819 1.951-7.319 4.2842-16.477 0.031067 1.3973 0.065186 2.5027 0.10532 3.7365-1.2761 4.3818-2.288 7.9759-2.3528 8.2837l2.8444 2.1158c0.054535 0.7991 0.10535 1.4406 0.10535 1.4406l3.3712 0.4954 0.8779 0.4051c0.005371-0.013977 0.13162-0.37964 0.14047-0.40509l3.2308 0.4051s-0.090057-4.1086-0.035156-10.625c5.962-19.487 18.108-59.516 30.622-100.8 1.0648-0.080811 2.1596-0.14478 3.2658-0.13501-0.2561 0.9765-0.71802 2.7709-1.0184 3.9167-14.62 31.131-20.914 69.201-23.423 89.86-1.776 6.8964-3.1416 12.21-3.2307 12.74l1.826 1.0805c-0.049225 0.66052-0.10535 1.3057-0.10535 1.3057l3.4414 1.2606s0.048859-0.50998 0.070251-0.72034l0.4565 0.2252c-0.010895 0.1514-0.035095 0.6301-0.035095 0.6301l3.4414 1.2606s0.032532-0.20294 0.035095-0.22501l0.4565 0.225c0.67035-1.8716 13.787-51.269 23.423-87.654-3.2318 17.289-5.4993 34.031-7.0233 48.036-9.0791 20.083-14.468 34.08-14.468 34.08l4.3544 2.0709c-0.019928 0.050171-0.28094 0.72034-0.28094 0.72034l5.7591 2.7462s1.0015-2.4559 1.6856-4.1419c-0.031342 0.62717-0.070251 1.5758-0.070251 1.5758l4.0735 0.8556c-0.001984 0.044464-0.035095 0.40506-0.035095 0.40506l6.0751 1.3055s0.024078-0.77515 0.035156-1.1254l1.9314 0.5851v0.13522l0.7023 0.0449 0.5268 0.1801v-0.089874l3.0902 0.27c0.01181-0.095001 0.13672-2.1615 0.17563-2.7013l0.8428 0.4954 0.0351-0.0901 1.9666 0.9905c0.005127 0.065948 0.035095 0.40503 0.035095 0.40503l1.1589 0.1801 1.51 0.7204c0.009735-0.02713 0.12448-0.44397 0.14047-0.49521l0.7726 0.0901s-0.058441-1.0345-0.10538-2.5212c0.11923-0.42831 0.22894-0.73175 0.38629-1.3055 0.11996 2.2009 0.21069 3.7817 0.21069 3.7817l3.5819 0.45s-0.19934-7.3492 0.10541-18.728c7.6756-28.678 19.044-71.672 23.879-89.95 14.655-24.971 31.023-48.303 47.302-62.533 5.327-4.4615 10.664-8.062 15.908-10.535-0.25531 0.017593-0.51703 0.066254-0.77258 0.090042 0.47882-0.23265 0.96222-0.46331 1.4398-0.67526-8.3171 11.025-14.825 26.162-19.946 42.994l3.8628-24.761 0.7374-2.6562-0.4565 0.9906 0.878-5.6275-2.4933 9.094-15.346 32.82s-3.925 15.01-5.4782 20.934c-0.84399 0.50954-1.7108 1.2764-2.5635 2.341-38.378 47.915-46.319 100.53-46.319 100.53l3.8979 1.8457c-0.057129 0.33872-0.1756 1.0805-0.1756 1.0805l5.7591 2.7462s4.9126-38.934 32.764-83.242c-9.3668 35.79-19.957 76.379-20.262 78.2l3.8628 2.2512 0.0703 0.045 0.9482 0.5403 0.0352-0.0901 4.6705 2.296c0.056488-0.15759 0.54889-1.952 0.80768-2.8814l2.2474 0.4953c-0.030212 0.75589-0.07016 1.3057-0.07016 1.3054l3.1605 0.3152c-9.77e-4 0.033722 0 0.27011 0 0.27011l3.8628 0.4053 0.4214 0.0899v-0.044952l0.4565 0.045s0.007263-0.81116 0.035095-2.0258c0.60406-2.6572 2.9856-12.898 7.3394-29.263-0.66339 10.106-0.96832 17.736-1.1237 22.825-0.73651 3.5072-1.0886 5.5375-1.0886 5.5375l0.913 0.3152c-0.001068 0.0784 0 0.5401 0 0.54028l2.1421 0.3602c-0.001526 0.008514-0.035156 0.13492-0.035156 0.13492l4.5652 1.5757s0.082062-0.3902 0.10535-0.54031l3.4414 0.5403s0.015686-1.4572 0.035095-3.6017l0.9131 0.1352c-3.97e-4 0.00174-0.035156 0.13501-0.035156 0.13519l0.1405 0.0449c-2.44e-4 0.019745 0 0.27017 0 0.27017l5.4079 0.8553 0.5268 0.1352s-3.1e-5 -0.044891 0-0.044952l0.1756 0.045s3.36e-4 -0.57486 0-0.72037c0.034363-0.15295 0.38922-1.6063 0.52673-2.2059l2.5986 0.5403c-0.040527 0.20352-0.21069 1.0803-0.21069 1.0805l6.0752 1.3055s0.1409-0.81284 0.17557-0.99045l2.107 0.9904s0.66974-1.6381 0.8428-2.0709l2.0719 0.7654v-0.09021l3.5819 1.0355 0.7726 0.3602s-4.58e-4 -0.17023 0-0.18012l0.5619 0.1801c0.038818-0.1695 0.33554-2.0628 0.49164-3.0614l1.5451 0.9004c0.049805 1.7004 0.10541 2.8813 0.10541 2.8813l3.5468 0.6754s-0.033325-0.75885-0.035156-1.9809l0.4565 0.225c0.033875 1.1404 0.07019 1.7557 0.07019 1.7559l3.5468 0.6301s0.010864-0.9743 0.035095-2.4309l2.5986 0.4051s0.03479-1.5134 0.1756-3.7368l2.423 0.8554c-0.017517 0.054504-0.24585 0.76526-0.24585 0.76526l5.9348 2.1161s0.33997-1.0713 0.38623-1.2157l0.2107 0.0451c-0.06012 0.20584-0.31604 1.0804-0.31604 1.0804l5.9347 2.1159s0.39087-1.343 0.98328-3.3313l2.704 1.3055c0.034241-0.09552 0.34613-1.3701 0.45648-1.756l3.6522 1.756s0.21411-0.58749 0.24579-0.67548l3.0902 0.6755s0.37646-1.5831 0.45654-1.936l4.1087 1.936c0.063354-0.18463 0.55603-2.154 0.87787-3.3766l2.2474 1.0805c-0.16821 0.89075-0.28094 1.3957-0.28094 1.3957l2.9849 1.0356 0.0703 0.045c-0.005615 0.032013-0.035156 0.27011-0.035156 0.27011l2.1422 0.7203 1.7558 0.8553s0.032959-0.2088 0.035095-0.22501l0.6672 0.225s0.15008-0.96075 0.38629-2.3411l0.8779 0.3153s0.89722-3.0128 2.1772-7.2032c-0.40607 4.1714-0.52686 6.5729-0.52686 6.5729l3.4064 1.2606s0.70093-7.0703 2.4582-18.233c-1.4789 11.193-1.9315 18.368-1.9315 18.368l3.4414 1.2606s4.0803-36.066 16.154-73.833c1.494-2.6274 3.0487-5.2915 4.7058-7.9685-3.2957 18.768-5.4545 36.583-6.8127 50.558-2.2067 14.187-3.8066 24.886-3.8627 25.706l1.8261 0.7203c-0.067078 1.2566-0.10541 2.251-0.10541 2.251l4.0735 0.8556c-0.001953 0.044464-0.035156 0.40506-0.035156 0.40506l6.0752 1.3055s0.1991-7.3819 1.0185-19.178c3.6471-22.306 8.1461-50.311 12.326-76.354 2.058-1.1983 4.1998-2.2412 6.4264-3.0164 1.3176 2.3674 2.6431 5.0062 3.933 7.7434-9.05 36.4-20.345 81.963-20.648 83.917l4.8812 2.7461 0.0352-0.0898 4.7056 2.2059c0.037903-0.11056 0.39337-1.5325 0.52679-2.0258l2.423 0.8553c-0.060181 0.20584-0.3161 1.0804-0.3161 1.0804l5.9347 2.1159s0.42926-1.3654 0.87793-2.8814l4.6354 0.7203 0.5267 0.1352s-1.22e-4 -0.044891 0-0.044952l0.1755 0.045s4.88e-4 -0.57486 0-0.72037c0.004272-0.018921 0.064453-0.2442 0.070313-0.27008l3.0551 0.6302c-0.040588 0.20374-0.21075 1.0805-0.21075 1.0805l6.0752 1.3055s0.27612-1.422 0.56189-2.8362l1.7206 0.8104s0.66974-1.6381 0.8429-2.0709l1.3696 0.495c-1.22e-4 0.028015 0 0.31528 0 0.31528l4.1086 0.8555c-0.006775 0.36212-0.035156 1.1254-0.035156 1.1254l6.0752 1.3055s-0.013672-1.1461 0.035034-3.1064l2.3177 1.0806c0.020203-0.059113 0.23285-0.90982 0.28082-1.0806l0.4566 0.0901c-0.001404 0.023193 0 0.22501 0 0.22513l4.7408 0.7653s0.03479-1.5134 0.17554-3.7368l2.4581 0.9004c-0.015808 0.049438-0.24579 0.72031-0.24579 0.72031l5.9347 2.1161s0.85266-2.5807 1.4397-4.3669l2.7041 1.5757 0.0703 0.0451 0.9481 0.5403 0.0352-0.0902 4.6705 2.2962c0.034424-0.096191 0.38025-1.3662 0.49158-1.756l0.8779 0.4054c-6.1e-5 1.53e-4 0 0.044891 0 0.045074l0.1053 0.0449 2.6689 1.2606s0.21381-0.58667 0.24585-0.67548l3.0552 0.6755s0.37628-1.5831 0.45642-1.936l4.1086 1.936c0.3902-1.1346 6.2841-24.383 12.712-49.837 3.6135-7.9369 7.5979-16.32 11.94-24.896 0.29852 0.15991 0.6247 0.30125 0.91309 0.40509-0.078979-0.11624-0.16656-0.24248-0.24591-0.36015 0.63019 0.56731 1.2272 1.0636 1.8261 1.4406-15.112 36.766-24.371 68.881-24.371 68.881l3.3361 1.1703c-0.06012 0.20606-0.31604 1.0805-0.31604 1.0805l5.9348 2.1161s12.553-44.11 32.483-88.915c-5.9046 37.436-13.139 83.438-13.274 85.403l5.0919 2.0709 0.0352-0.09 4.8461 1.5307c0.65784-2.6681 17.751-109.45 19.841-122.5 2.7095-4.9121 5.4926-9.7056 8.3578-14.271 0.021423-0.034286 0.048645-0.05603 0.070129-0.090027 3.1378 0.017578 6.3262 1.1472 9.5517 2.4761l-2.0368 4.4569s-30.411 122.13-30.867 125.07l4.8812 2.7461 0.0352-0.0898 4.7056 2.2059c0.93433-2.7175 31.956-126.15 31.956-126.15l0.6673-4.5921c3.4547 0.98914 6.9069 1.2597 10.324-0.22502-1.6293 0.29401-3.2704 0.27589-4.9164 0 1.6056-0.005753 3.1766-0.2812 4.7057-0.94546-3.1064 0.56079-6.3796-0.2197-9.7274-1.5307l1.3695-9.4091c4.6598 1.4118 9.3989 3.1737 13.976 2.8813l10.149-29.713 0.4213-2.7463c4.6896 15.998-13.574 25.046-24.02 26.157l2.7039-18.773 0.6323-2.4761-0.4214 0.9454 0.8077-5.5825-2.3528 9.004-6.7073 14.812c-8.0097-2.88-15.767-3.971-21.842 4.9073-0.14258 0.002441-0.27911 0.038162-0.42133 0.045074l1.5099-25.932 0.4214-2.5211-0.316 0.9454 0.316-5.6275-1.5802 9.274-9.903 28.768c-0.26324 0.29404-0.51251 0.57568-0.77252 0.90041-6.3079 7.8754-12.406 16.759-18.19 26.067-1.1094-0.30829-2.1913-0.54895-3.2658-0.76538-0.74585-0.20486-1.4824-0.42223-2.2124-0.58533 5.0344-13.628 10.516-27.127 16.4-39.618 7.0495-11.098 14.381-20.898 21.807-28.588 5.0273-5.0002 10.1-9.1011 15.17-12.11-0.23273 0.040497-0.46979 0.08947-0.70239 0.13513 0.5506-0.33451 1.1-0.68546 1.6505-0.99042-1.5328 0.44153-3.0662 1.0245-4.6003 1.7108-5.4388 1.5759-10.837 4.4934-16.154 8.5538 2.0215-3.0556 4.1008-5.8753 6.1805-8.5538 4.5759-5.6684 9.2598-10.486 14.047-14.181-0.23523 0.074791-0.46771 0.18988-0.70239 0.27025 0.52069-0.41028 1.0572-0.83484 1.5804-1.2156-1.5022 0.65839-3.0127 1.4342-4.4949 2.341-10.625 4.6969-20.606 14.953-29.814 28.453-3.6481 1.9384-7.2877 4.3748-10.921 7.2482l0.3863-2.7462-0.8077 3.0614c-3.735 2.9882-7.4488 6.4124-11.132 10.22l0.8077-5.2223 0.7374-2.6562-0.4566 0.9904 0.8781-5.6276-2.4934 9.0942-3.7224 7.9685c-6.9625-0.9455-14.585-4.1018-21.456-4.2319l0.9482-6.4829 0.632-2.4761-0.4213 0.9454 0.8077-5.5825-2.3528 9.004-2.1069 4.6821c-4.1824 0.44299-8.0111 2.3743-11.097 7.068 7.3886-15.818 15.412-30.017 23.879-40.923 1.2853-1.5921 2.5596-3.097 3.8628-4.547 1.5364 0.21986 3.1072 0.50713 4.7056 0.90041-1.3892-0.58-2.7632-1.0906-4.1086-1.5308 3.1492-3.4437 6.3444-6.501 9.5868-9.004-0.23523 0.074791-0.46771 0.18988-0.70239 0.27025 0.51788-0.40782 1.0248-0.83684 1.5451-1.2156-1.5021 0.65839-2.9775 1.4342-4.4597 2.341-3.5201 1.5561-6.9493 3.7481-10.324 6.4379-0.10644-0.024063-0.21002-0.066963-0.3161-0.090187-11.97-3.7592-22.208-2.078-30.973 3.5567-21.263-2.5737-36.941 14.037-48.426 38.537l0.7374-12.651 0.4214-2.5211-0.316 0.9454 0.316-5.6275-1.5803 9.274-7.0233 20.394c-4.6359-1.5211-9.1496-2.2412-13.274-0.58536 0.7373-1.6255 1.4624-3.2675 2.2123-4.8622 7.0881-11.179 14.477-21.032 21.948-28.768 5.0276-5.0002 10.1-9.1011 15.17-12.11-0.24567 0.042778-0.4917 0.13168-0.73737 0.18007 0.55804-0.33941 1.1274-0.72621 1.6856-1.0354-1.5328 0.44153-3.0662 1.0245-4.6003 1.7108-5.4388 1.5759-10.837 4.4934-16.154 8.5538 2.0217-3.0556 4.1008-5.8753 6.1806-8.5538 4.5759-5.6684 9.2597-10.486 14.047-14.181-0.23529 0.074791-0.46777 0.18988-0.70233 0.27025 0.51782-0.40782 1.0248-0.83684 1.5451-1.2156-1.5021 0.65839-2.9775 1.4342-4.4598 2.341-10.625 4.6969-20.606 14.953-29.814 28.453-3.648 1.9384-7.2876 4.3748-10.921 7.2482l0.3864-2.7462-0.8078 3.0614c-3.7275 2.9824-7.4208 6.4214-11.097 10.22l0.8077-5.2223 0.7023-2.6562-0.4565 0.9904 0.4213-2.6561c0.76819-0.32904 1.53-0.65462 2.3178-0.94546-0.76276 0.16077-1.502 0.35022-2.2475 0.54022l0.3862-2.5662-0.7375 2.6563c-3.4343 0.89983-6.6822 2.0699-9.7623 3.5566-4.7609 1.7638-9.1428 4.1224-13.169 7.0231-1.355-0.21159-2.6937-0.37915-4.0033-0.40521l0.9482-6.4829 0.6321-2.4761-0.4215 0.9454 0.8077-5.5825-2.3528 9.004-2.1071 4.6821c-4.196 0.4359-8.0023 2.3612-11.097 7.068 7.3885-15.818 15.412-30.017 23.879-40.923 0.44775-0.55479 0.88434-1.0828 1.3343-1.6207 0.010925 0.00444 0.024292-0.004494 0.035156 0 0.83545-0.99796 1.6504-1.9885 2.4933-2.9263 1.5364 0.21986 3.1071 0.50713 4.7056 0.90041-1.3892-0.58-2.7632-1.0906-4.1086-1.5308 3.1492-3.4437 6.3445-6.501 9.5868-9.004-0.23517 0.074791-0.46777 0.18988-0.70233 0.27025 0.51788-0.40782 1.0248-0.83684 1.5452-1.2156-1.5021 0.65839-2.9777 1.4342-4.4598 2.341-3.5175 1.5549-6.9517 3.7509-10.324 6.4379-0.10644-0.024063-0.20996-0.066963-0.31604-0.090187-4.8771-1.5317-9.4804-2.1604-13.801-1.9809 1.4371-1.3209 2.8643-2.5684 4.3193-3.6915-0.26776 0.08503-0.54083 0.1778-0.80768 0.27 0.55109-0.4361 1.1316-0.85732 1.6856-1.2606-1.527 0.66932-3.0588 1.5052-4.5651 2.4312-1.7502 0.77796-3.4825 1.6776-5.1973 2.7462-2.3463 0.42356-4.5986 1.0816-6.7775 1.9809-10.303 1.7361-18.973 8.2347-26.267 17.873-1.4217 0.26855-2.8487 0.65377-4.2842 1.1256-17.97 3.1915-36.412 21.032-53.377 44.21l2.6688-16.883c0.66785-0.9021 1.3419-1.7927 2.0368-2.6561 1.9008-0.59497 3.8387-1.0888 5.8294-1.4406-1.6829 0.042053-3.3331 0.21222-4.9514 0.40521 6.1917-7.4243 13.455-13.304 21.948-16.928-4.3853 1.1616-8.4595 2.8415-12.256 4.9072-3.9966 1.7151-7.7315 3.8283-11.167 6.3477l0.1756-1.0354 0.6672-2.3861-0.4214 0.9004 0.8779-5.5374-2.4581 8.914-0.0351 0.09c-2.624 2.0288-5.1002 4.2652-7.4096 6.708-5.7424 1.2983-11.042 3.555-15.943 6.5728 13.018-30.444 32.298-51.032 60.822-42.454-2.9165-1.3888-5.7581-2.3949-8.4982-3.1514-30.173-11.297-50.314 13.409-63.666 48.532 0.67014-10.809 0.94101-15.282 1.4749-23.906l0.2107-1.3056-0.1756 0.5853c0.069824-1.1266 0.14404-2.0745 0.21072-3.1516 0.44601-0.20583 0.88144-0.43692 1.3344-0.63014-0.45364 0.12016-0.8873 0.27473-1.3344 0.40514 0.21344-3.4483 0.45401-7.2509 0.63208-10.13 4.8845 0.49644 9.9817 2.0019 15.311 4.6821-2.7382-1.9136-5.408-3.4748-8.0417-4.7272-2.3973-1.4003-4.7443-2.5328-7.0584-3.4215 0.24686-3.9903 0.79929-12.763 0.94815-15.172 0.054993-0.18153 1.3345-4.3668 1.3345-4.3668l7.6905-38.132 0.7726-2.566-0.4566 0.9004 1.1237-5.4924-2.6689 8.6889-6.7775 14.091-0.7375-31.964 0.1405-2.4311-0.1756 0.9453-0.1404-5.6274zm134.92 69.556c0.30499-0.003304 0.60535-0.003746 0.91302 0-0.60803 0.51981-1.2232 1.0678-1.8261 1.6207-1.3576-0.42181-2.6898-0.75201-4.0033-1.0354-0.14008-0.0438-0.2818-0.092773-0.42139-0.13502 1.7292-0.26781 3.5153-0.43002 5.3378-0.45033zm131.9 0c0.31677-0.003418 0.6286-0.004166 0.94812 0-10.064 8.603-19.472 21.826-28.023 37.412l0.4214-9.7693 0.4213-2.7463-0.3512 1.0805 0.2459-5.7626-1.4398 9.4542-3.4064 10.445 0.5267-12.47 0.4214-2.7463-0.3512 1.0805 0.2458-5.7626-1.4397 9.4542-8.1821 25.031c-3.2389-0.76312-6.5954-2.1279-9.9732-3.5116 0.89319-2.491 1.8364-4.9173 2.8094-7.2932 2.9045-1.14 5.9003-2.059 9.025-2.6112-2.8695 0.071747-5.6396 0.39705-8.3227 0.90041 6.7926-16.055 15.531-29.054 26.724-36.196 3.0512 0.24373 6.2236 0.81049 9.5166 1.8008-2.6589-1.2662-5.2487-2.2323-7.7607-2.9713 5.4033-3.0736 11.37-4.744 17.944-4.8172zm-456.09 2.026c0.31677-0.003479 0.62845 0.040749 0.94815 0.045052-11.813 10.089-22.682 26.476-32.378 45.65l0.7726-18.053 0.4214-2.7462-0.3512 1.0805 0.2458-5.7626-1.4398 9.4541-9.5868 29.398c-3.9344 6.1347-7.7396 12.677-11.378 19.449-0.55499-0.10617-1.105-0.23166-1.6505-0.31509-1.1068-0.24921-2.1959-0.42426-3.2658-0.58528 7.7686-32.727 20.281-62.202 40.419-73.112 1.7734 0.31664 3.5576 0.70418 5.408 1.2606-1.4807-0.70506-2.9196-1.3064-4.3545-1.8459 4.9282-2.4792 10.324-3.8514 16.189-3.9167zm317 0c1.7814-0.019737 3.6406 0.086304 5.5133 0.31505-10.805 10.197-20.768 25.602-29.744 43.354l0.7725-18.053 0.4214-2.7463-0.3512 1.0805 0.2459-5.7175-1.4398 9.4092-11.518 35.296s-1.2526 8.8739-1.4748 10.445c-1.0214 2.5217-2.0011 5.0657-2.9849 7.6083-4.2317 0.28658-8.1331 1.2794-11.729 2.9264 0.56433-2.6776 1.1314-5.3696 1.7558-8.0136 8.1444-21.094 17.369-41.449 27.391-57.671v-0.045067c2.9712-4.8073 6.0273-9.1943 9.1302-13.191 0.036316-0.0448 0.069092-0.090172 0.10541-0.13497 2.5159-1.7461 5.157-3.2171 7.9363-4.3219 1.9394-0.33738 3.9119-0.51733 5.9698-0.54024zm-349.13 4.637c-3.8831 3.0921-7.4595 6.9876-10.746 11.525-12.099 10.292-23.748 26.072-34.414 44.075 9.9668-28.368 24.357-51.093 45.16-55.6zm451.84 1.8459c-8.6143 8.6706-15.52 21.473-21.105 36.376-1.8925 0.6102-3.7556 1.3004-5.5485 2.1158-2.3393-0.28006-4.6423-0.12157-6.8125 0.63042 8.4059-18.751 19.311-33.388 33.466-39.122zm-667.39 185.26zm420.45-176.88c-0.19794 0.66875-0.59457 2.026-0.80768 2.7461-0.9331-0.47514-1.8892-0.86453-2.8093-1.2606 1.1885-0.55998 2.396-1.0541 3.617-1.4856zm-249.92 2.251c-1.9482 2.5933-3.8773 5.3145-5.7591 8.1936l0.4916-3.1063-1.1237 4.0968c-0.38501 0.59758-0.77673 1.1924-1.1588 1.8008-0.4559 0.1671-0.92059 0.31676-1.3695 0.49513l0.0351-0.3151 0.4565-2.7913-0.3511 1.0805 0.1404-2.6563c0.57254-0.52254 1.1484-1.0303 1.7207-1.5305 2.3054-1.9309 4.6218-3.6847 6.918-5.2674zm-49.62 1.8459c5.7061-0.040207 11.745 1.3054 18.085 4.3219-0.39902 0.20502-0.80104 0.41609-1.194 0.63016-3.9769 1.7115-7.6761 3.8393-11.097 6.3479l0.1756-1.0354 0.6672-2.3861-0.4214 0.9004 0.8779-5.5374-2.4582 8.9138-0.0351 0.0902c-2.624 2.0289-5.1002 4.265-7.4096 6.7079-5.759 1.3022-11.066 3.5868-15.978 6.618 4.1018-9.6024 8.8173-18.223 14.257-25.256 1.4908-0.20933 2.9943-0.30429 4.53-0.3151zm291.15 0c2.256 0.039635 4.5649 0.27258 6.918 0.76528-1.0411 3.5182-2.3985 8.2661-3.7224 12.741-5.0087 3.3236-9.4749 7.3788-13.45 12.065l1.791-12.245 0.6321-2.4762-0.4214 0.9453 0.8077-5.5825-2.3528 9.004-12.466 27.642c-2.8352-1.4187-5.7151-2.9746-8.5684-4.367 8.6239-16.866 18.851-30.899 30.832-38.492zm-319.7 0.7653c-14.479 9.7147-26.618 29.29-36.486 51.953 0.65097-5.6034 0.71026-6.0141 1.3344-11.39 8.1849-18.287 19.513-33.27 35.152-40.563zm69.109 4.5469l-0.8077 4.6821c-1.0648 0.44661-2.0996 0.93095-3.1254 1.4406-1.2801 0.49185-2.5328 0.99596-3.7575 1.5758 2.5579-2.7714 5.1264-5.3347 7.6905-7.6985zm-60.225 0.7203c-5.346 9.2766-9.8952 20.217-13.801 32.009-0.17545 0.19492-0.35268 0.38811-0.52675 0.58519l3.7926-23.951c3.3491-3.4132 6.8613-6.3336 10.535-8.6438zm288.41 1.2606c-6.4228 7.7133-12.27 17.274-17.558 27.912-2.2345-0.37457-4.4368-0.31479-6.5668 0.36017 7.0684-12.02 15.073-21.983 24.125-28.273zm201.29 0.7654l-1.6505 5.9877-3.7224 7.9685c-3.6496-0.49342-7.4597-1.5534-11.272-2.5211 4.968-4.8412 10.49-8.7394 16.645-11.435zm-429.26 3.1514c-0.062225 0.10185-0.11343 0.21304-0.17557 0.31517v-0.18007c0.061096-0.037598 0.11429-0.097778 0.17557-0.1351zm264.25 0.3152c-0.45138 8.0234-0.65302 11.481-1.194 21.114l-7.5852 16.252s-3.3344 12.722-4.3545 16.612c-1.0216-0.22563-2.029-0.39446-3.02-0.54024 8.0538-26.572 11.043-36.561 16.154-53.439zm-265.8 0.7203l-1.3344 3.8266c-10.964 19.052-20.625 42.144-28.725 64.874-6.4722 9.396-11.883 18.78-16.364 27.732 6.5968-37.295 19.858-79.001 46.424-96.433zm575 2.1609c-1.2393 2.2091-2.4471 4.4487-3.6522 6.7529-0.11633 0.16539-0.2348 0.32919-0.35107 0.4953l0.4916-3.3315c1.1688-1.3402 2.3397-2.6536 3.5117-3.9167zm-131.93 0.045c-1.2308 2.195-2.4202 4.4191-3.6171 6.7079-0.11627 0.16539-0.23486 0.32919-0.35107 0.4953l0.4916-3.3315c1.1562-1.326 2.317-2.6211 3.4765-3.8717zm-324.2 2.0258c-1.2178 2.1718-2.3972 4.3994-3.5819 6.663-0.1217 0.17278-0.26483 0.32185-0.38629 0.49532l0.4916-3.2864c1.1554-1.3251 2.3178-2.6221 3.4765-3.8718zm-192.09 2.3862l-12.291 26.292s-3.3393 12.696-4.3544 16.567c-2.5946-0.57294-5.0805-0.82851-7.4798-0.90039 6.7848-16.214 14.785-31.007 24.125-41.959zm484.05 4.0967c4.0287 0.15503 8.2488 1.1848 12.396 1.6207-9.4022 10.89-18.482 23.912-26.969 37.637 0.52612-2.0941 3.0201-12.02 3.0201-12.02l2.1069-14.496c2.8754-4.6422 6.0162-8.9179 9.4464-12.741zm-158.62 0.4053c-4.8936 16.543-6.0981 20.699-12.221 41.418-1.9434 0.23438-3.8103 0.61906-5.6186 1.1705 0.676-2.6904 3.4414-13.731 3.4414-13.731l0.5619-3.7817c1.9631 0.10374 3.9185-0.19 5.8645-1.0355-1.6525 0.29834-3.317 0.28667-4.9865 0 1.6302 0.002609 3.2244-0.27145 4.7758-0.94537-1.6229 0.29289-3.2875 0.21841-4.9866-0.090179 3.6967-8.4803 8.043-16.298 13.169-23.005zm-167.01 1.5756c4.4378-0.10373 9.1698 1.2199 13.801 1.7109-2.6552 3.0769-5.3014 6.2943-7.9012 9.6792-4.162-0.18166-8.6254-1.8968-13.134-3.7366l0.8779-6.1678c2.0121-1.0345 4.1408-1.4338 6.3561-1.4857zm456.09 0c3.9415-0.092087 8.1252 0.91177 12.256 1.4857-1.8124 2.1523-3.6221 4.3673-5.4081 6.663-4.6078-1.8511-9.2861-3.9393-13.766-4.7721l0.2457-1.7108c2.1047-1.1607 4.3394-1.6112 6.6722-1.6658zm-107.46 0.2702l-7.1989 16.027c-0.30011 0.51416-0.61456 1.013-0.91309 1.5305l1.3696-8.7338c2.2294-3.0563 4.4841-5.9924 6.7424-8.8239zm131.9 0l-5.0568 11.165c-0.66681-0.003586-1.3546-0.098419-2.0368-0.1801l0.3512-2.116c2.2351-3.0648 4.4782-6.03 6.7424-8.8689zm-613.21 0.2251c-13.865 18.439-21.214 44.476-25.003 69.646-2.113 4.0436-4.1866 8.0483-6.1454 11.975 3.0905-21.262 7.6875-44.577 14.538-65.324 5.0005-6.4673 10.537-11.991 16.61-16.297zm157.11 1.8008l-7.3394 16.297c-0.2587 0.44426-0.51504 0.90399-0.77255 1.3506l1.3695-8.779c2.2294-3.0562 4.4841-6.0373 6.7424-8.8689zm-80.592 1.3055c-3.3503 9.3452-6.1916 19.421-8.6036 29.803-3.2547 0.31451-6.2973 1.1064-9.1654 2.2509 5.6458-11.22 11.588-22.095 17.769-32.054zm266.01 0.6304c-13.857 18.428-21.213 44.444-25.003 69.601-0.375 0.71759-0.75339 1.4463-1.1238 2.161 0.57614-9.2282 1.0834-17.111 1.6856-26.787 2.2172-9.7974 4.7975-19.491 7.831-28.678 5.0005-6.4672 10.537-11.991 16.61-16.297zm320.72 2.7012c0.79114-0.023895 1.5832 0.047226 2.388 0.135l-3.1254 6.8881c-2.4912-1.3143-4.9652-2.6244-7.4448-3.6918 2.5842-2.3395 5.3419-3.2458 8.1822-3.3313zm-132.46 0.045c-0.48047 1.4618-0.98193 2.921-1.4398 4.412-1.4587 0.080231-2.9631-0.066284-4.4949-0.36015-0.11554-0.054337-0.23572-0.081543-0.35114-0.13501 1.2701-1.2309 2.5713-2.3995 3.8979-3.5117 0.78552-0.20688 1.5847-0.34992 2.388-0.40511zm9.5165 1.5307c3.3403 1.0106 6.7094 2.2468 10.043 2.7462l-2.5283 7.7884s-0.069702 0.53577-0.070251 0.54024c-2.8326 0.27992-5.7915-0.43391-8.8143-1.6207l1.3696-9.4542zm-333.15 0.4502c0.77948-0.023499 1.5601 0.049973 2.3528 0.13507l-3.0902 6.888c-2.4908-1.314-5.0007-2.5793-7.4798-3.6466 2.5958-2.3666 5.3624-3.2904 8.2173-3.3765zm296.77 0c0.37225-0.011276 0.74835 0.029922 1.1238 0.044922l-1.3344 3.9168c-0.26581 0.29646-0.54523 0.57263-0.80768 0.90041-6.3005 7.8662-12.377 16.726-18.155 26.022-1.1071-0.30743-2.1935-0.50436-3.2658-0.72032-0.59576-0.16368-1.2054-0.31319-1.791-0.45018 3.9814-7.6491 8.1514-15.083 12.502-22.015 3.5659-5.6821 7.5418-7.5721 11.729-7.6985zm79.715 0c3.1943-0.09639 6.5178 0.8959 9.8678 1.9359-6.185 8.1785-12.152 17.126-17.874 26.382 0.52618-2.0941 3.0201-12.02 3.0201-12.02l2.3177-15.937c0.87714-0.20904 1.7702-0.33305 2.6688-0.36012zm-367.53 1.6207c4.6614 1.4102 9.3959 3.1635 13.976 2.8813l-2.4582 7.6083s-2.52 17.965-3.7926 26.967c-11.898 19.975-22.287 41.345-30.27 59.246 9.1611-36.258 20.122-80 20.122-80l0.6672-4.5922c3.4657 0.99696 6.9312 1.2645 10.359-0.22499-1.6524 0.29834-3.317 0.28667-4.9866 0 1.6302 0.002609 3.2245-0.27145 4.7759-0.94537-3.1179 0.56287-6.4015-0.21048-9.7624-1.5308l1.3695-9.4091zm-91.198 0.4051c4.0372 1.2609 8.1113 2.6052 12.08 2.5211-6.031 8.0207-11.864 16.759-17.453 25.796 0.52612-2.0942 3.02-12.02 3.02-12.02l2.3528-16.297zm404.23 1.0805c-0.032532 0.10719-0.072937 0.20805-0.10529 0.31523-0.4668 0.011642-0.9342-0.016464-1.4047-0.044983 0.51324-0.056747 1.0078-0.15356 1.51-0.27025zm78.626 0.2252l-0.0352 0.09c-0.17188-0.006516-0.35431-0.033432-0.52673-0.044983 0.18756-0.019302 0.37573-0.018112 0.56195-0.045059zm-0.6321 1.1705c0.046753-0.004623 0.093689 0.005142 0.14056 0l-1.3697 2.9713c-0.27045 0.46399-0.53857 0.92892-0.80768 1.3955l0.6673-4.3219c0.45563-0.004623 0.91693 1.37e-4 1.3695-0.044907zm-86.246 1.1705c2.293 0.20685 4.6132 0.93773 6.953 1.8459-2.996 10.511-5.4648 21.593-7.5149 32.684-0.031799 0.12762-0.073242 0.23152-0.10541 0.36017-3.0516-0.27518-5.9996-0.12793-8.8142 0.40527-0.45856-0.39662-0.90802-0.78172-1.3696-1.0805-0.59399-0.50568-1.1893-0.91888-1.791-1.2155 0.92755-5.7835 2.5348-15.676 2.8796-17.828 0.13544-0.4673 0.28381-0.93018 0.42133-1.3956 1.5465-2.7924 3.1077-5.5507 4.7057-8.2388 1.5008-1.9227 3.0413-3.7848 4.6354-5.5374zm-325 1.9809c2.9961 0.10588 6.0555 1.1656 9.1303 2.4311l-2.0016 4.457s-21.264 85.427-28.409 114.76c1.6121-25.727 6.5739-79.612 21.281-121.64zm70.83 0.6303c3.0303 0.77966 6.0788 2.1258 9.1654 3.4215l-1.2642 2.8363s-0.60532 2.5037-0.63208 2.611c-1.783 4.2045-3.3833 8.5437-4.8109 13.011-1.691-0.44806-3.3439-0.83284-4.9515-1.0805-2.0953-0.4734-4.1461-0.73792-6.1102-0.90042 2.6612-6.8728 5.5186-13.554 8.6035-19.899zm-11.343 1.7108c-2.7299 6.0854-5.2917 12.38-7.6905 18.818-2.9831 0.63631-5.795 1.652-8.428 3.0164 3.8857-6.1602 7.8883-12.118 12.01-17.693 1.3447-1.819 2.7267-3.1441 4.1086-4.1418zm292.35 0.9004c-0.001343 0.009644-0.1026 0.74666-0.10529 0.7654-1.194 0.088745-2.4146 0.0215-3.617-0.18007 1.2647-0.004456 2.5036-0.18541 3.7223-0.58533zm-9.1654 0.8103c2.9979 0.86241 6.0164 1.2058 8.9899 0.31522-0.036072 0.25442-1.0128 7.2291-1.194 8.5087-3.3763 8.3361-6.5602 16.806-9.5165 25.211-0.91193-0.42714-1.81-0.81528-2.704-1.1705-1.0167-0.48451-2.0256-0.9101-3.02-1.3057 2.3019-9.1555 6.7776-26.967 6.7776-26.967l0.6671-4.5921zm-427.65 6.8431c-0.199 0.79852-2.4514 9.752-3.1956 12.741-1.0231 0.39864-2.015 1.5235-2.9849 3.5114-0.49292 1.0103-0.9635 2.0054-1.4398 3.0164 2.407-6.5217 4.9441-12.959 7.6203-19.269zm454.9 2.8813c-0.26178 1.0505-1.5428 5.9905-2.0017 7.8335-0.5846 0.22775-1.1524 0.67116-1.7207 1.3955 1.2072-3.1162 2.4529-6.1678 3.7224-9.229zm-107.6 3.3765c-0.31702 1.2083-1.3547 5.1353-1.8262 6.933-1.1944 0.56187-2.345 1.1954-3.4765 1.891 1.7414-2.9651 3.5158-5.917 5.3027-8.8239zm131.9 0c-0.31702 1.2083-1.3546 5.1353-1.826 6.933-1.1508 0.54138-2.2437 1.1352-3.3361 1.8008-0.022339-0.016846-0.047729-0.028214-0.070129-0.044922 1.7167-2.9214 3.4714-5.8241 5.2323-8.6888zm-511.47 1.3505c1.0863-0.023468 2.1719 0.025787 3.3009 0.090179-2.8809 5.387-5.6545 10.9-8.3226 16.477 1.0174-5.5249 2.145-11.048 3.4063-16.477 0.53226-0.033112 1.0726-0.078354 1.6154-0.090179zm55.309 0.7654c-0.31519 1.2016-1.3257 5.0688-1.791 6.843-1.1835 0.55809-2.3197 1.2014-3.4414 1.8908 1.7238-2.9352 3.464-5.8556 5.2324-8.7339zm-66.862 1.3506c-0.93622 4.2371-1.8312 8.507-2.6338 12.786-2.4393-3.1541-4.8448-5.8346-7.1638-7.5634 2.9945-2.211 6.2593-3.9756 9.7975-5.2223zm195.07 1.6656c2.2183-0.047943 4.5548 0.079849 6.953 0.40526-1.2375 3.8871-2.3405 7.877-3.336 11.885-2.7738 2.8272-5.2935 6.0775-7.6203 9.6343-1.8185-3.2006-3.6452-6.1549-5.4782-8.5538 1.4619-4.3512 2.9814-8.6937 4.6003-12.966 1.5827-0.23682 3.1984-0.36867 4.8812-0.40526zm216.95 0.9455c1.7487 0.029236 3.5541 0.18352 5.4078 0.45021-3.5609 5.7463-6.9902 11.647-10.289 17.603 1.631-6.4847 3.2774-13.02 4.214-16.747 0.22412-0.43825 0.44177-0.86887 0.66724-1.3056zm131.58 0c1.8513 0.015701 3.7542 0.16699 5.724 0.45021-3.5432 5.7179-6.9704 11.587-10.254 17.513 1.747-6.9462 3.5969-14.249 4.53-17.963zm-200.66 0.9455c-4.0691 10.742-7.8084 21.546-11.167 31.964-1.1808-2.7056-2.3648-5.3576-3.5818-7.7884 0.8667-5.8402 1.8334-11.73 2.9497-17.603 3.5357-2.8788 7.4613-5.1056 11.799-6.5728zm-255.44 1.0805c1.8358 0.016129 3.7367 0.17104 5.6889 0.45006-3.5636 5.7508-6.953 11.688-10.254 17.648 1.7458-6.9415 3.5545-14.175 4.4949-17.918 0.022247-0.060776 0.047943-0.11942 0.07019-0.18008zm91.163 1.2606c-0.26566 0.74641-0.54633 1.5028-0.80768 2.2508-0.48184-0.38534-0.96066-0.699-1.4398-0.99033 0.73264-0.4545 1.4856-0.85744 2.2475-1.2605zm40.349 1.2605c-6.7043 22.693-13.068 44.246-18.506 62.713 0.45117-5.2614 1.0123-10.751 1.7208-16.432 0.42557-1.6879 0.52365-2.0529 0.94809-3.7367 0.72189 0.69798 1.4455 1.2616 2.1422 1.6207-0.56616-1.0445-1.1422-2.1668-1.7207-3.2864 4.7779-18.958 6.9748-27.654 9.5517-37.907 1.8709-1.1649 3.8106-2.157 5.8645-2.9712zm-231.42 0.1801c2.8369 3.5467 5.7452 7.7626 8.6036 12.02-1.2376 7.1677-2.2803 14.295-3.1956 21.249-3.4073-8.2966-6.9809-16.695-10.711-22.69 1.558-3.3865 3.1535-6.7559 4.7758-10.13 0.17023-0.15212 0.35464-0.30093 0.52676-0.45006zm188.68 1.1254c0.33789 0.42197 0.67969 0.8475 1.0184 1.3055-9.9216 28.783-16.62 58.194-20.332 76.759 3.6074-24.76 6.7986-46.778 9.9379-68.61 0.89883-1.4993 1.8278-2.9938 2.7742-4.502 2.1395-3.4093 4.3565-4.8866 6.6019-4.9522zm380.66 0.09c-5.1291 10.467-9.8403 21.152-14.117 31.514-0.58746-0.88901-1.1547-1.8065-1.7559-2.7463 4.9176-9.617 10.231-19.368 15.873-28.768zm-169.79 3.1963c-0.46716 1.7825-0.8429 3.1674-1.3695 5.1774-0.5835-0.25575-1.1798-0.44939-1.7558-0.6754-0.35498-0.16753-0.70136-0.33853-1.0535-0.49512 1.3299-1.4332 2.7285-2.7721 4.1788-4.0069zm131.55 0.3152c0.057312 0.080154 0.11822 0.14482 0.17566 0.22504-1.1948 4.5588-1.9219 7.2525-3.4414 13.056-0.94519-2.472-1.8881-4.8047-2.8445-6.9782 1.9006-2.3183 3.9399-4.4165 6.1102-6.3028zm-455.81 1.7558c-1.2199 4.6544-1.9762 7.5078-3.5468 13.506-0.94269-2.4645-1.8554-4.8113-2.8093-6.9782 1.9723-2.4 4.0934-4.5945 6.3561-6.5279zm389.27 2.341c-0.32672 1.3133-0.49445 2.0212-0.84277 3.4215-0.74579-1.059-1.4888-2.0153-2.2475-2.8363 1.0079-0.24664 2.049-0.4319 3.0903-0.5852zm11.518 0.27c1.9262 0.3472 3.911 0.81984 5.9348 1.4858-2.7402 7.809-5.3023 15.524-7.6554 23.005-0.92352-2.2177-1.863-4.3896-2.8094-6.5278 0.008179-0.060684 0.026978-0.11946 0.035156-0.1801 2.0965-8.3278 2.9184-11.513 4.4949-17.783zm-81.541 0.2252c1.1448 0.24387 2.2981 0.54626 3.4766 0.90039-0.79706 3.0423-1.1364 4.3045-2.0367 7.7435-0.94782-2.4784-1.9205-4.8005-2.8796-6.9781 0.46881-0.57106 0.95514-1.1191 1.4398-1.6658zm-68.969 3.1064c-0.11081 0.64516-0.2431 1.2913-0.35114 1.9358-0.11453 0.18368-0.2027 0.39992-0.31607 0.5853 0.25354-0.95786 0.42761-1.6159 0.66721-2.5211zm65.036 1.8458c1.1002 2.8295 2.1921 5.6542 3.2659 8.4188-13.09 29.769-22.746 57.396-27.25 70.906 0.85706-8.4822 2.4312-20.189 5.2324-32.594 0.80286-3.1778 1.4551-5.9056 2.2825-9.1841 3.6945-13.509 8.9559-27.089 16.47-37.547zm131.93 0c1.0982 2.8248 2.1938 5.6591 3.2657 8.4188-13.093 29.774-22.78 57.394-27.286 70.906 0.85706-8.4822 2.4313-20.189 5.2324-32.594 0.80298-3.1778 1.4551-5.9056 2.2825-9.1841 3.6964-13.516 8.9854-27.087 16.505-37.547zm-456.13 2.0258c1.101 2.8319 2.1912 5.6972 3.2658 8.4638-13.087 29.764-22.747 57.354-27.25 70.862 0.8649-8.5596 2.4531-20.379 5.3026-32.91 0.7767-3.0742 1.413-5.7018 2.2123-8.8689 3.6946-13.509 8.9558-27.089 16.47-37.547zm-43.123 3.9168c-0.41931 1.2407-0.8197 2.4584-1.2291 3.6917-0.082825-0.13315-0.1629-0.27188-0.24582-0.40527 0.47955-1.0982 0.9863-2.1865 1.4749-3.2864zm402.72 1.2606c-1.193 3.4701-2.301 6.9619-3.3361 10.445-7.7415 13.634-13.343 26.687-17.348 37.817 1.0555-4.1714 2.0666-8.2252 3.1956-12.696 5.1035-11.212 10.984-23.368 17.488-35.566zm-218.25 0.8103c-0.090973 0.51331-0.15796 1.0175-0.24579 1.5307-0.097443-0.19044-0.18335-0.39558-0.28094-0.5852 0.17676-0.31073 0.34698-0.63832 0.52673-0.94548zm-187.8 5.5374c0.19626 0.22362 0.40311 0.41907 0.59698 0.6304-2.8912 8.8954-5.5258 17.55-7.8661 25.616 0.33429-3.6808 0.70084-7.4421 1.1238-11.3 1.9569-4.9152 3.9824-9.8841 6.1454-14.947zm319.46 1.1707c0.62396 1.3906 1.2446 2.7594 1.8612 4.0968-1.028 1.7084-2.0256 3.4845-2.985 5.2674 0.35052-3.0819 0.71036-6.2089 1.1238-9.3642zm131.05 6.888c0.66858 1.3976 1.307 2.7019 1.9666 3.9618-1.2676 4.1439-2.4813 8.1968-3.617 12.11-0.018127 0.047684-0.052124 0.087585-0.070251 0.13516 0.474-5.2268 1.0638-10.645 1.7207-16.207zm-526.01 34.26c-1.3213 4.8429-2.4239 9.0938-3.4765 13.191 0.085785-1.1652 0.18162-2.2882 0.28093-3.5116 0.93545-3.0255 1.9709-6.2568 3.1956-9.6794zm314.86 0c-0.10748 3.3807-0.18515 6.5828-0.21069 9.6344-0.14911 0.57501-0.38159 1.4208-0.52676 1.9809 0.24435-3.8577 0.45514-7.1298 0.73746-11.615zm197.21 16.342c-0.002441 0.048523 0.002319 0.08667 0 0.13513-0.048706 0.14789-0.092529 0.3036-0.1405 0.45001 0.05896-0.23204 0.080688-0.34996 0.1405-0.58514zm-520.39 13.371c0.00914 1.244 0.017883 2.2627 0.035118 3.2414-0.1436 0.63361-0.29286 1.201-0.38628 1.6207 0.003555-0.9826 0.01432-1.8907 0.03511-3.2864 0.090561-0.49936 0.2002-0.98026 0.31606-1.5758z" fill="#4f6e32"/>
  <path d="m559.26-106.75l-0.6672 10.31-7.9012 39.933s-1.3008 22.879-1.6504 29.083c-23.518 21.175-43.51 65.221-58.469 107.6-1.0668 0.7529-2.0984 1.5798-3.1254 2.431 2.3918-14.905 6.0401-37.772 6.0401-37.772l0.5268-9.2292c3.6075 0.56314 7.1566 0.40527 10.57-1.4856-1.787 0.51475-3.5964 0.667-5.4431 0.54023 1.778-0.18037 3.5172-0.66456 5.1621-1.5758-3.1589 0.9099-6.5624 0.56384-10.078-0.36018l1.791-30.929 0.4565-2.7463-0.3511 1.0356 0.3511-6.1227-1.7207 10.084-8.8845 25.751c-4.1155-1.6684-8.2497-3.4688-12.291-4.502 7.848-17.26 16.334-33.025 25.354-45.38 5.7698-7.569 11.715-13.938 17.804-18.638-0.28143 0.08947-0.56213 0.21837-0.84283 0.31506 0.58673-0.46344 1.1661-0.92129 1.7558-1.3505-1.6201 0.71012-3.212 1.5908-4.8109 2.5661-17.382 7.6599-33.186 28.901-46.916 55.375-7.4343 1.3404-16.299-2.318-24.687-3.9167 13.145-32.795 33.248-55.192 63.982-47.631-3.3237-1.3875-6.5254-2.3938-9.622-3.0614-31.339-9.803-51.804 14.808-65.176 50.468-0.79645 0.18351-1.5888 0.40997-2.3528 0.72032-2.1847 0.34301-4.3147 0.81076-6.3913 1.3955-3.8578 0.68634-7.5471 1.7802-11.062 3.1965l1.8963-12.065 0.7374-2.6563-0.4565 0.9906 0.9482-6.0777-2.704 9.7692-5.8644 12.561c-58.736 31.093-66.862 161.62-66.862 161.62l3.7575 1.4406s0.040131-0.71025 0.17557-1.9358l0.4916 0.135c-0.10202 1.2374-0.14041 1.8908-0.14041 1.8908l3.7574 1.3957s0.068787-0.67592 0.14044-1.2606l5.9698 1.2606s-1.2446-53.376 30.481-116.96c1.9958-3.9999 4.2223-5.9694 6.637-6.3927-6.9872 26.645-30.157 115.05-30.622 117.82l4.214 2.4762 0.0702 0.045 1.0184 0.5852 0.0352-0.0899 5.127 2.5211c0.052216-0.1458 0.52542-1.9009 0.73746-2.6562l0.2458 0.0449c-0.046295 0.23265-0.24579 1.2156-0.24579 1.2156l6.637 1.3957s9.7939-51.113 27.742-103.46c2.5467 3.7994 5.0531 7.5106 7.4446 10.715-1.5267 11.032-2.7074 21.669-3.617 31.514-12.532 32.666-20.016 58.481-20.016 58.481l3.6521 1.3056c-0.06488 0.22203-0.35114 1.1704-0.35114 1.1704l6.4614 2.2961s2.7276-9.4662 7.5852-24.176c-0.35962 8.5856-0.42139 13.776-0.42139 13.776l4.4598 0.7203c-7.63e-4 0.059036 0 0.49532 0 0.49532l1.4047 0.225c-0.48697 2.1428-0.8428 3.6017-0.8428 3.6016l5.0217 1.0805c-0.013733 0.060822-0.21069 0.85547-0.21069 0.85547l6.637 1.3957s0.24994-1.1229 0.28094-1.2606l5.9698 1.2606s-0.44623-18.537 5.6889-46.776c3.6397-13.095 8.0464-28.047 13.098-43.67 3.2887-8.551 7.1561-17.422 11.694-26.517 2.0147-4.038 4.2664-5.9951 6.7072-6.3927 3.5348 3.546 7.2356 8.6077 10.921 14.001-1.3576 8.597-1.8608 11.721-3.617 22.87-21.402 32.647-30.13 83.287-30.13 83.287l3.3361 1.1705c-0.005463 0.031265-0.035126 0.27011-0.035126 0.27011l4.9866 1.7558s0.3064-1.9819 0.91302-5.2674l2.5284 1.1705c-0.079468 0.21666-0.42139 1.1255-0.42139 1.1254l6.321 2.9715s0.50235-1.4746 1.1588-3.2414l2.9498 1.2155 0.1054 0.0451 1.0183 0.4051v-0.090027l0.7375 0.2251c-3.1e-5 0 0 0.044952 0 0.044952l0.4565 0.0901 4.1437 1.3056c0.005524-0.022461 0.062469-0.36864 0.070221-0.40523l1.9666 0.4052s7.7987-35.047 21.07-77.975c0.93722-1.8789 1.9128-3.7353 2.8795-5.6275 0.25876 0.12993 0.521 0.26955 0.77261 0.36017-0.099518-0.14665-0.216-0.30168-0.31607-0.4502 1.2576 1.1415 2.4427 1.9757 3.5819 2.3859-0.96082-1.4164-1.9177-2.9462-2.9147-4.502 3.8407-7.4448 7.9048-14.96 12.15-22.33 3.157-0.86856 6.4367-1.367 9.9028-1.3505-9.0704 34.606-27.633 105.52-28.058 108.05l4.214 2.476 0.0702 0.0451 1.0184 0.5852 0.0351-0.09 5.0919 2.5211c0.43118-1.2038 6.9297-25.589 14.082-52.493-0.43286 9.4196-0.53082 17.974-0.45654 25.166-1.0416 12.539-1.3695 20.394-1.3695 20.394l2.107 0.4502c0.049255 0.70761 0.10535 1.3957 0.10535 1.3955l3.8979 0.5403s-0.029541-0.45955-0.035156-0.58518l0.5619 0.1351c0.004456 0.059784 0.035095 0.40514 0.035095 0.40514l3.8629 0.4953s6.1e-5 -0.087021 0-0.090164l0.4916 0.0902s1.9064-73.658 19.209-133.94c-0.91596 16.353-1.4282 25.589-2.3177 41.554-8.5151 47.005-10.359 89.545-10.359 89.545l4.4598 0.9453c-0.002625 0.059357-0.035156 0.49528-0.035156 0.49528l4.2842 0.9004v0.044937h0.31604l0.7374 0.1801 0.2809 0.0902v-0.045059l1.0184 0.2251s-3.05e-4 -0.21205 0-0.22514l2.3177 0.2251c0.14349-1.1548 2.3395-36.224 4.8812-76.894 3.2374-21.478 7.8688-44.636 14.573-65.594 1.294 0.36377 2.606 0.58936 3.898 0.72031-18.644 61.403-21.948 138.93-21.948 138.93l4.4248 0.9453c-0.002686 0.059219-0.035156 0.49528-0.035156 0.49528l6.637 1.3957s5.0867-197.32 74.447-210.33c2.0627 0.35022 4.1624 0.83643 6.321 1.4856-1.4033-0.66818-2.7783-1.2243-4.1438-1.7559 5.8518-0.75879 12.153-0.28138 18.928 1.7559-3.2593-1.552-6.4241-2.7282-9.4815-3.5567-8.2152-3.0374-15.749-3.5921-22.65-2.161-5.711-1.0828-11.07-0.96784-16.083 0.27025-19.982-4.4912-35.633 6.1164-47.864 24.671 0.58466-9.4471 1.4031-22.506 1.7206-27.642 2.8511-2.9625 5.7195-5.625 8.6387-7.8784-0.25958 0.08252-0.51367 0.18148-0.77252 0.27012 0.57288-0.45178 1.1448-0.8866 1.7206-1.3055-1.6279 0.71355-3.2396 1.5847-4.8461 2.5661-1.5071 0.66554-3.0117 1.4313-4.4949 2.2961 0.20471-3.312 1.2993-20.889 1.2993-20.889l-1.0183-42.769 0.2106-3.1513-0.2458 1.2155-0.1404-6.2578zm-459.11 2.296l-1.194 10.039-10.465 39.122s-6.3836 57.814-12.747 115.97c-0.10624-0.016899-0.2101-0.028992-0.31604-0.045105-67.979-15.254-71.568 124.62-71.568 124.62l3.4765 0.3602c-8.75e-4 0.031143 0 0.27013 0 0.27025l5.127 0.5403s0.037233-1.5682 0.10535-3.8268l0.8077 0.2701c-0.041065 0.39558-0.14046 1.2154-0.14046 1.2156l6.4614 2.341s0.15455-1.9403 0.59698-5.4475l2.8796 1.3506c-0.079433 0.21666-0.4214 1.1255-0.4214 1.1254l6.321 2.9715s17.601-49.18 43.509-96.883c-3.1619 28.956-6.0936 56.132-7.9363 73.293-1.3927 10.592-1.9237 17.547-2.0719 19.629-0.014755 0.17027-0.1388 1.3882-0.14046 1.4406l3.5117 1.3956v0.13495l0.7374 0.1352 0.6672 0.2701v-0.13502l2.7391 0.5403 0.4565 0.1801s-3.28e-4 -0.087143 0-0.090164l0.4214 0.0902c0.085983-0.46457 0.90733-7.1856 2.0016-16.432 2.5612-15.432 7.3231-39.809 15.381-64.829 0.059845 0.092773 0.11585 0.1785 0.17558 0.27011-2.3253 14.774-4.0347 25.739-6.1103 39.032-4.7178 18.139-8.5194 32.81-9.0952 35.341-0.043785 0.11276-0.24581 0.58516-0.24581 0.58516l0.0702 0.0451c-0.009171 0.044388-0.10087 0.42352-0.10535 0.45021l4.214 2.4762 0.2458 0.135 0.8779 0.4951 0.0351-0.0899 5.0919 2.5211c0.002632-0.007477 0.032066-0.12618 0.035118-0.13512l0.2809 0.1351s0.10329-0.21997 0.10535-0.22514l0.5267 0.2251c0.016014-0.046646 0.17876-0.74495 0.21069-0.85542l2.8093 0.8554c0.018471-0.074905 0.20276-1.1202 0.24581-1.3507l2.8444 1.3507s2.2814-17.875 12.15-43.624c5.8863-12.806 12.906-27.438 20.754-42.544 2.0882-3.4742 4.2845-7.0005 6.637-10.535-19.356 37.219-20.859 95.532-20.859 95.532l3.4765 0.3602c-8.77e-4 0.031143 0 0.27013 0 0.27025l5.127 0.5403s0.23769-75.601 29.252-109.17c2.8652 4.8496 5.7179 10.898 8.4631 17.018-19.548 44.975-31.78 87.384-31.78 87.384l3.617 1.3057c-0.060165 0.20599-0.31606 1.1254-0.31606 1.1256l6.4614 2.341s0.28281-0.93352 0.35114-1.1706l2.4231 1.1707s12.282-31.093 30.903-68.881c1.2415 1.7419 2.478 3.0971 3.6872 3.8719-0.058533-0.12933-0.11688-0.27486-0.17557-0.4052 1.0338 1.3605 2.0648 2.4494 3.0903 3.1064-1.4898-3.2884-3.0133-6.9413-4.5652-10.715 6.9961-14.024 14.852-28.833 23.212-43.219-7.0133 25.774-9.4229 53.678-10.043 75.589-7.1765 20.451-9.341 34.44-9.341 34.44l4.2491 2.026c-0.065613 0.38821-0.21072 1.2156-0.21072 1.2154l6.321 2.9715s0.10468-0.6928 0.14047-0.94548l3.4063 0.4951s-0.29636-5.8199-0.28094-15.397c0.044495-0.17648 0.094849-0.36142 0.14044-0.54024 0.22009 9.8762 0.66724 15.892 0.66724 15.892l3.8979 0.4953s-0.44467-13.792 0.63208-33.99c5.6491-16.675 14.798-37.943 29.322-60.282-3.5239 13.461-4.9066 18.786-8.7089 33.36-11.994 31.557-19.068 56.14-19.068 56.14l3.617 1.3057c-0.061798 0.21147-0.3512 1.1254-0.3512 1.1256l6.4615 2.341s0.15854-0.52568 0.17557-0.58531l1.5803 0.5853s0.45422-1.35 0.52673-1.5758l3.1956 1.5758c0.38641-1.0789 5.7917-21.246 11.975-44.48 3.8473-10.202 8.283-21.541 13.239-33.45-12.818 41.075-20.052 74.598-20.052 74.598l5.0216 1.0805c-0.013702 0.060822-0.21069 0.85547-0.21069 0.85547l6.6019 1.3957s9.1819-41.088 24.511-88.78c3.9415 8.8161 7.7799 17.204 11.448 21.519-13.832 30.206-19.665 64.064-19.665 64.064l3.3361 1.1705c-0.005463 0.031265-0.035126 0.27011-0.035126 0.27011l4.9866 1.7558s9.1778-61.839 36.1-92.561c-19.65 45.125-31.956 87.789-31.956 87.789l3.6521 1.3057c-0.061737 0.21147-0.35117 1.1254-0.35117 1.1256l6.4615 2.341s9.0684-31.748 24.09-69.826c-4.6105 32.818-9.0496 64.774-9.1303 66.314l4.4247 1.6207v0.04509l0.2809 0.09 0.8779 0.3152v-0.090164l5.3728 1.5308c0.013824-0.060349 0.14764-0.92014 0.1756-1.0805l5.0919 1.0805s10.521-54.804 29.709-109.04c1.4397 0.21437 2.8992 0.56833 4.3896 0.94551-14.534 49.221-28.115 95.304-28.409 96.703l3.1956 2.3411-0.0351 0.135 0.6321 0.3152 0.6672 0.4953 0.0351-0.1351 3.4063 1.7107c0.35178-0.9203 8.1705-26.616 17.699-57.986-4.0485 34.599-2.6689 63.118-2.6689 63.118l3.8628 0.6754s-0.11588-8.0723 0.45651-20.844c-0.26395 12.801 0.10535 20.844 0.10535 20.844l3.8628 0.7203s0.001221-97.157 32.237-152.62c2.0894-0.12546 4.1367-0.598 6.1454-1.7106-1.7412 0.50151-3.5045 0.60536-5.3026 0.49517 1.7279-0.19164 3.4204-0.64368 5.0217-1.5307-1.4638 0.42165-2.9766 0.5853-4.5301 0.54024 2.3394-3.8373 4.8381-7.4516 7.515-10.805 5.1907 0.7 10.278 0.73887 14.819-2.5661-1.7257 0.75632-3.4995 1.1288-5.3377 1.2606 1.747-0.42642 3.3974-1.1201 4.9514-2.2511-3.6479 1.599-7.7541 1.4702-12.08 0.72031 7.2554-8.3485 15.717-14.764 25.6-18.413-5.039 1.0619-9.7447 2.6895-14.117 4.8622-7.1708 2.7536-13.557 6.7431-19.209 11.795-2.9024-0.75651-5.8176-1.5107-8.6738-2.026 7.1883-23.736 18.261-60.327 18.261-60.327l8.3929-41.734 0.8077-2.6561-0.4565 0.9454 1.194-5.9426-2.8795 9.4542-16.961 35.206s-11.304 38.211-19.244 65.054c-3.9187 1.0548-7.452 3.6372-10.324 8.734-6.5761-1.349-12.77-0.29475-17.874 7.2032-3.3041 4.8537-6.5263 10.01-9.657 15.352 0.002991-0.020874 0.17554-1.2156 0.17554-1.2156l1.8612-43.174 0.3863-2.6561-0.3161 1.0354 0.2458-6.1227-1.5451 10.039-9.0601 27.868c-7.6011-1.3087-15.926-6.2824-23.774-8.1486 1.7018-3.6872 3.436-7.3298 5.1973-10.85 5.1802-7.5838 10.45-14.494 15.802-20.394 0.30359-0.32012 0.60913-0.63086 0.91302-0.94534 0.60165-0.65002 1.223-1.2663 1.8261-1.8908 5.4815-5.4517 11.012-9.9099 16.54-13.191-0.31451 0.054737-0.63382 0.11682-0.94812 0.18008 0.64902-0.39704 1.3174-0.76582 1.9665-1.1254-1.6504 0.47539-3.2998 1.1102-4.9514 1.8457-5.0259 1.45-10.024 3.9989-14.96 7.4284 1.7842-2.6208 3.6181-5.0776 5.443-7.4284 4.9891-6.18 10.092-11.413 15.311-15.442-0.25958 0.08252-0.5137 0.18148-0.77261 0.27012 0.57303-0.45178 1.1449-0.8866 1.7207-1.3055-1.6279 0.71355-3.2396 1.5847-4.8461 2.5661-15.511 6.8506-29.774 24.544-42.421 47.091-3.979 5.1849-7.8894 10.788-11.694 16.702-1.0217 0.97532-2.0346 2.1156-2.9849 3.5117-5.6081 8.238-10.961 17.315-16.048 26.787 0.19864-0.75119 1.9314-7.3382 1.9314-7.3382l6.637-42.274 0.7375-2.6563-0.4565 0.9906 0.9482-6.0777-2.7039 9.8144-10.64 22.78c-1.685 0.45207-3.3895 0.56316-5.127 0.45021 1.7523-0.18613 3.4694-0.63187 5.0919-1.5307-5.6171 1.618-12.003-0.66299-18.471-3.2864 1.8738-3.1878 3.8559-6.2276 5.9698-9.0942 0.054626-0.066257 0.12094-0.11382 0.17557-0.18009 0.051453-0.069283 0.088898-0.15585 0.14047-0.22501 3.3086-3.9974 6.6735-7.6874 10.008-11.12 5.0598-4.634 10.669-8.4207 16.891-11.075-2.7405 0.72595-5.3749 1.597-7.9012 2.6561 5.4058-4.4051 10.795-7.9345 16.118-10.445-0.28241 0.019436-0.56006 0.06366-0.84277 0.090046 0.64557-0.31422 1.2879-0.66589 1.9314-0.94538-1.7748 0.32041-3.5431 0.82953-5.3377 1.4406-15.903 3.0076-32.15 16.418-47.583 34.936-7.8099-2.3887-15.28-2.4604-21.246 6.3028-6.1161 8.9844-11.961 18.946-17.453 29.353-11.644-0.38736-21.126 4.203-28.866 11.795-0.19546-0.11136-0.40073-0.22502-0.59698-0.31505-0.67728-0.75575-1.3534-1.3951-2.0367-1.9358 16.136-27.628 34.237-53.562 52.218-69.286 5.808-4.8644 11.63-8.7391 17.348-11.435-0.29074 0.02001-0.58685 0.062651-0.8779 0.090046 0.6456-0.31422 1.2879-0.66589 1.9314-0.94538-1.7749 0.32041-3.5431 0.82953-5.3377 1.4406-20.912 3.955-42.413 25.976-61.875 53.799-6.3186 0.79854-13.222-3.0138-20.157-6.663 10.096-11.376 21.938-19.472 35.819-21.925-4.8603 0.12146-9.4621 0.83889-13.836 2.0708-8.1114 1.4429-15.456 4.6298-22.088 9.0942l2.8093-17.963 0.7375-2.6563-0.4565 0.9906 0.9482-6.0777-2.704 9.8144-0.1405 0.315 0.4565-3.1963 0.7023-2.7012-0.4565 1.0354 0.8779-6.1227-2.5986 9.9044-10.254 22.735c-0.83738-0.28168-1.6638-0.52411-2.4933-0.72031l1.7207-28.813 0.4565-2.7463-0.3512 1.0356 0.3512-6.1227-1.7207 10.04-9.2005 26.742c-2.6596 0.87735-5.255 2.6768-7.6905 5.7176-2.4875 3.1056-4.9173 6.3656-7.3394 9.7243 5.6444-48.594 11.518-99.629 11.518-99.629l1.0184-43.084 0.3161-2.8362-0.2809 1.0805 0.1405-6.1678zm611.06 64.694c-1.6279 0.71355-3.2395 1.5847-4.846 2.5661-10.026 4.4284-19.525 13.387-28.409 25.256-2.7591-1.0008-5.4614-1.6505-8.1119-2.0258 4.4434-4.1014 8.9116-7.568 13.38-10.22-0.31458 0.054737-0.63385 0.11682-0.94818 0.18008 0.64899-0.39704 1.3174-0.76582 1.9666-1.1254-1.6668 0.48014-3.3537 1.1453-5.0216 1.8908-5.7855 1.6796-11.548 4.7397-17.207 9.004-8.8283 0.72432-17 4.8448-24.547 11.39l0.1406-3.8267-0.6672 4.2768c-3.7966 3.3628-7.4111 7.3582-10.886 11.84l0.4213-2.9263 0.7024-2.7463-0.4566 1.0354 0.8779-6.1227-2.5986 9.9044-2.6338 5.8527c-20.511 29.442-35.109 75.879-44.177 112.37-12.204 31.158-19.49 54.699-19.49 54.699l4.8811 1.7557c-0.018433 0.057449-0.28088 0.81035-0.28088 0.81049l6.4965 2.341s0.76715-2.2699 1.0535-3.1515l0.2107 0.0902c-0.008057 0.050858-0.07019 0.4502-0.07019 0.45006l6.3911 2.6113s0.22516-1.4646 0.56195-3.6467l1.8261 1.0354c-0.027344 0.40527-0.07019 0.99058-0.07019 0.99058l3.4764 0.5402c-0.001892 0.031418-0.035034 0.26997-0.035034 0.26997l0.9481 0.1352 1.4047 0.6753c0.007568-0.022171 0.094116-0.36839 0.10522-0.40523l2.669 0.4052s0.20422-5.9455 1.1588-15.172c4.9223-19.283 11.424-44.984 18.436-72.842 2.8801-5.8293 6.1594-11.236 9.9379-15.937-5.7115 40.445-13.855 98.131-13.976 100.44l0.0701 0.0451c-0.001282 0.005768-0.035095 0.1351-0.035095 0.13498l1.0887 0.2252 2.2825 0.8553c-0.010559 0.16769-0.070251 0.63045-0.070251 0.63045l1.7207 0.27 1.7208 0.3602c-9.16e-4 0.013687 0 0.18008 0 0.18008l2.9849 0.4503h0.034973l1.159 0.3602c0.00116-0.005463 0.033691-0.083847 0.035034-0.090164l0.4565 0.0902v-0.045059l0.4565 0.0451s0.057373-1.0413 0.1405-2.5211c0.10644-0.4666 0.29681-1.3225 0.49164-2.161l4.0034 1.6207c-0.008057 0.050858-0.070251 0.4502-0.070251 0.45006l6.3912 2.6113s8.3421-59.767 27.707-113.04c4.3886-3.4099 9.2803-5.9333 14.714-7.3383-1.0526 5.1341-2.0327 10.295-2.9147 15.442-19.978 49.838-22.826 95.758-22.826 95.758l3.1253 1.5757c-0.028198 0.38206-0.10529 1.2155-0.10529 1.2155l4.6354 2.341s1.004-22.857 9.1302-55.149c-3.1829 32.498-3.4765 56.95-3.4765 56.95l3.7925 0.6304c9.16e-4 0.018158 0 0.22502 0 0.22502l0.6672 0.1351v0.1801l6.6722 1.0805s1.22e-4 -0.17172 0-0.18008l0.9482 0.1801s0.012268-64.94 17.628-118.94c5.1542 10.249 10.394 26.978 15.03 36.016-3.3464 20.273-5.4338 39.135-6.7422 53.484-3.3477 13.605-5.736 23.304-5.8645 24.131l3.8978 2.2061c-6.71e-4 0.01799 0 0.27013 0 0.27013l0.7726 0.1801 0.6672 0.3601 0.0353-0.09 5.1268 2.3861c0.017029-0.049545 0.21082-0.77867 0.24597-0.90041l4.2139 0.9004s0.039001-0.93611 0.10535-2.6562l0.6672 0.3601 0.0352-0.09 5.1271 2.3861c1.0186-2.9626 34.836-137.54 34.836-137.54l6.1454-42.364 0.7024-2.7463-0.4565 1.0354 0.8779-6.1227-2.5987 9.9044-13.59 30.164 4.1789-28.993c13.871-25.111 33.022-40.148 59.487-32.189-3.2714-1.5578-6.4134-2.7277-9.4814-3.5567-21.678-8.0056-38.561 1.1027-51.727 19.224-0.75885-0.40628-1.5314-0.76732-2.2826-1.1255-7.8268-4.576-15.245-6.6098-22.264-6.4829 11.328-11.688 25.452-17.214 43.088-12.876-3.3115-1.3824-6.5009-2.3936-9.5868-3.0614-21.281-6.6654-37.565 2.5545-50.006 20.304-2.2382 1.1679-4.426 2.6032-6.5668 4.1868-1.328-0.76816-2.6636-1.4489-3.9681-2.0708-0.5174-0.30252-1.0313-0.62034-1.5452-0.90039 3.2571-5.2765 6.6057-10.113 10.008-14.497 4.9891-6.18 10.092-11.413 15.311-15.442-0.25946 0.08252-0.51367 0.18148-0.77252 0.27012 0.57288-0.45178 1.1448-0.8866 1.7206-1.3055zm-120.1 18.593c-7.6518 5.6101-14.326 14.004-20.157 24.221-3.1102 1.583-6.0386 3.4353-8.8143 5.4924 7.8779-13.89 17.389-24.575 28.971-29.713zm-42.561 2.8363c-0.52667 9.3494-1.1342 20.082-1.9666 34.89-1.2314 2.768-2.4052 5.6327-3.5467 8.5538l2.107-13.551 0.8077-2.8813-0.4916 1.0805 0.9481-6.1227-2.7391 9.9044-7.7608 16.612c-3.5716 0.44382-6.9789 2.3016-10.184 6.3028-4.7797 5.9674-9.421 12.461-13.941 19.269 10.701-27.946 23.13-54.812 36.767-74.058zm50.814 2.7911c-12.839 12.963-22.605 34.119-30.025 57.896-1.2259-0.27515-2.4706-0.70343-3.7224-1.1706 8.0712-24.337 19.008-45.355 33.747-56.725zm74.974 7.4734c0.25305-0.001837 0.51849-0.003296 0.7727 0-13.352 19.026-25.206 44.435-35.257 70.501-2.4976 0.21493-4.9012 0.61876-7.1988 1.3057 0.66919-4.6599 2.8092-19.494 2.8092-19.494l0.5268-12.696c8.3096-14.245 17.034-27.148 25.951-37.412 3.9808-1.4036 8.0939-2.1757 12.396-2.206zm49.304 0c4.4033-0.031122 8.9828 0.69742 13.731 2.296-1.4674 2.0768-2.9099 4.2368-4.2843 6.528-3.2848 0.9762-6.4325 2.1664-9.4112 3.6466-16.581 6.3675-28.876 19.576-37.961 36.196 4.817-16.454 10.928-31.538 18.682-43.399 6.0161-3.3642 12.426-5.2193 19.244-5.2673zm-39.787 1.0805c1.9096 0.44905 3.8611 1.0178 5.8294 1.7557-5.7245 4.3857-11.09 10.179-16.118 17.018 3.3304-6.6309 6.7635-12.935 10.289-18.773zm48.601 8.8239c-14.675 25.053-24.054 61.65-29.989 95.487-4.9689-14.02-10.267-28.681-15.416-31.829 0.90576 0.15414 1.8106 0.33263 2.7391 0.54025-0.89209-0.31595-1.7613-0.59253-2.6337-0.85532 9.4336-27.945 23.696-52.62 45.3-63.343zm-166.07 9.9494c-3.713 7.6978-7.0708 16.133-10.043 25.031-0.52728-0.27792-1.0521-0.57757-1.5802-0.85547 0.26794-4.3193 0.30609-5.0124 0.56189-9.139 3.3197-5.5259 6.9858-10.573 11.062-15.037zm116.73 4.9973c-5.4612 13.805-9.7997 29.465-13.239 45.515-4.3406 0.076172-8.3816 0.87141-12.15 2.2959 7.1013-18.049 15.513-34.897 25.389-47.811zm-259.76 1.0354c-1.4607 1.3849-2.8066 3.1837-4.0384 5.4475-5.315 9.7678-10.278 20.466-14.854 31.559 0.10425-0.39431 1.4046-5.2673 1.4046-5.2673l3.617-23.05c4.3461-3.5375 8.9553-6.495 13.871-8.6889zm-63.947 1.3056c1.5826-0.037018 3.2085 0.15244 4.8461 0.36016-2.9781 3.0319-5.7593 6.3392-8.3226 9.9044-0.46848-0.16813-0.93362-0.31636-1.4046-0.49527 1.2956-4.2773 1.7127-5.6207 2.9147-9.5892 0.65643-0.081387 1.2962-0.16452 1.9665-0.18009zm81.751 0c7.6105-0.17793 16.038 3.4672 23.528 1.4406-0.79315 1.5611-1.5742 3.1338-2.3529 4.7271-2.9286 1.0588-5.6918 3.1847-8.1821 6.843-11.612 17.057-22.213 37.641-31.359 58.076 3.3899-24.12 8.5802-49.449 16.505-70.952 0.60986-0.070602 1.2394-0.12059 1.8612-0.13502zm24.23 0.045c-0.037537 0.073025-0.06778 0.15198-0.10535 0.225-0.33002 0.042522-0.64999 0.06543-0.98325 0.090187 0.36768-0.090611 0.72848-0.19706 1.0886-0.31519zm164.66 2.7912l-0.0352 0.135c-1.121 1.6726-2.231 3.3606-3.336 5.0873 1.1126-1.7864 2.2166-3.5366 3.3712-5.2223zm-351.38 6.978c7.204-0.21709 14.989 4.3022 22.475 4.8622l-2.704 8.3288s-3.0859 21.934-4.9865 35.386c-0.087555 0.18495-0.19366 0.3551-0.28094 0.54024-12.545 7.3151-22.493 21.678-30.165 37.502-3.4453-8.3112-7.0545-17.48-10.816-25.076 6.7188-20.35 14.507-41.535 23.142-61.047 1.0984-0.30238 2.2062-0.46115 3.3361-0.49531zm-72.235 0.2703c-7.6707 9.7606-15.07 20.693-22.123 32.054-0.5701-0.12879-1.1244-0.20817-1.6856-0.31519 4.2891-8.2226 8.8044-16.177 13.485-23.636 3.182-5.0704 6.6618-7.3619 10.324-8.1036zm127.54 0.9004c-6.7742 13.374-12.933 28.145-18.401 43.084-3.0409-0.36073-5.9866-0.28784-8.8142 0.090027 6.083-12.565 12.678-24.837 19.665-35.971 2.3643-3.7676 4.9035-5.999 7.55-7.2032zm-114.52 0.8102c6.8409 2.1159 13.795 4.7027 20.262 1.3057l-6.0752 13.011s-4.1907 16.033-5.7942 22.15c-1.4129 0.39322-2.8484 1.4488-4.2842 3.2415-11.831 14.77-20.979 29.944-28.058 44.12 3.7504-28.338 10.77-59.791 23.95-83.827zm254 0.0451c3.6456-0.10996 7.4458 1.0092 11.272 2.206l-3.1605 9.1841s-2.9742 18.91-4.3896 27.867c-3.2062-3.652-6.3431-6.2028-9.2708-6.978-1.1441-0.82145-2.2743-1.4823-3.3712-1.891-0.78891-0.42944-1.5594-0.74452-2.3177-0.90038-0.86304-0.64832-1.6972-1.1908-2.5284-1.5756 3.5407-9.3871 7.2848-18.689 11.202-27.642 0.84638-0.17838 1.6992-0.24405 2.5636-0.27013zm-119.92 1.1255c0.15271 0.04612 0.30377 0.089462 0.45651 0.13502-0.28867 0.43249-0.59457 0.86681-0.87796 1.3056 0.1994-0.65805 0.22378-0.78816 0.42145-1.4406zm-11.659 3.1063c-5.2676 17.816-6.9518 23.509-12.466 42.184-1.3822-0.64972-2.7289-1.2113-4.0736-1.7106 4.959-13.88 10.476-27.675 16.54-40.473zm81.576 0.3602c-4.507 16.304-7.8746 33.741-10.43 50.647-2.1028-3.3054-4.2094-6.5061-6.321-9.4541 5.01-14.11 10.598-28.168 16.751-41.193zm-26.232 3.2864l-2.9849 6.393s-3.3824 12.95-4.3193 16.522c-0.30301-0.14407-0.61389-0.29377-0.91302-0.40527-0.78888-0.42944-1.5594-0.74452-2.3177-0.90038-0.98361-0.73904-1.9379-1.3627-2.8796-1.7557 4.056-7.2078 8.5264-13.921 13.414-19.854zm-275.66 0.3152c7.0399 2.6752 14.243 6.9711 21.316 5.1773-14.923 21.598-28.608 46.443-39.822 68.971 0.18308-0.72633 0.20379-0.71658 0.38628-1.4406 8.2463-31.089 16.505-62.308 16.505-62.308l1.6154-10.4zm432.95 0.8103c0.24579 0.10156 0.49133 0.21162 0.73743 0.31506-0.31335 0.97937-0.64288 1.938-0.94812 2.9264 0.097656-1.5736 0.11414-1.6848 0.21069-3.2414zm-410.62 2.8813c-0.22681 0.32472-0.44095 0.66413-0.66724 0.99043-1.2099 0.068985-2.3993-0.022781-3.617-0.22505 1.4544-0.009636 2.8863-0.27126 4.2842-0.76538zm-46.494 6.1678c-0.10887 0.6879-0.97546 6.1367-1.194 7.5183-5.1372 8.8523-9.5158 18.55-13.239 28.543-0.024834-0.043396-0.045387-0.091812-0.070236-0.13518 0.69492-5.9698 1.2284-10.658 1.9314-16.702 4.065-6.6471 8.2482-13.107 12.572-19.224zm428.81 3.0613c-0.23138 0.88187-3.996 15.333-5.7241 21.925-2.6141-0.60378-5.1558-0.93083-7.6202-0.99045 4.2874-7.2208 8.7463-14.254 13.344-20.934zm94.815 7.2482c-0.3551 2.5095-1.0779 7.769-1.6154 11.57-2.1348 1.7122-4.1596 3.6002-6.0751 5.7176 0.24683-0.98195 0.54645-2.117 0.7724-3.0164 2.2499-4.7832 4.5569-9.5499 6.918-14.271zm-547.75 2.2059c0.78358-0.016838 1.584-0.024635 2.3879 0-0.12676 1.1586-0.15412 1.4522-0.28093 2.6113-1.3019 2.0849-2.5906 4.1803-3.8628 6.3028-0.59226-0.39226-1.1666-0.70375-1.7558-0.94546-1.0548-0.96294-2.0823-1.7393-3.1254-2.296-0.76482-0.55334-1.5253-1.041-2.2826-1.3056-1.0673-1.0138-2.1108-1.7651-3.1605-2.296 3.7355-1.2587 7.7497-1.9772 12.08-2.071zm109 0.0451c0.5791 0.032822 1.1663 0.12547 1.7558 0.18005-3.6491 5.8938-7.2185 11.88-10.64 17.918 2.8505-6.0981 5.8042-12.168 8.8845-18.098zm-11.694 0.9004c-4.3612 8.4306-8.4888 17.098-12.361 25.751-3.0709-5.8748-6.2684-10.531-9.5517-12.696 6.046-6.4514 13.259-11.138 21.913-13.056zm467.47 4.6821c-3.6044 9.58-6.9544 19.162-10.043 28.543 1.7153-11.91 2.6167-17.878 3.7223-25.571 2.0124-1.1731 4.1192-2.165 6.321-2.9713zm-586.8 1.4407c-18.963 28.38-29.599 56.979-35.433 78.29 4.2261-28.134 13.795-63.442 35.433-78.29zm15.802 0.315c0.98949 1.2346 1.9552 2.6015 2.9498 4.0969-26.122 44.258-45.225 93.821-49.304 104.72 2.5384-17.394 11.157-58.751 39.155-103.37 2.3327-3.7172 4.7508-5.3761 7.1989-5.4475zm375.78 2.6563c-11.561 31.419-20.313 62.523-25.846 83.962 0.34097-7.9898 0.8739-17.468 1.7208-27.957 6.7325-17.689 14.85-37.254 24.125-56.005zm-128.74 5.6725c-6.1184 17.123-11.324 34.306-15.592 49.702 3.1448-21.733 4.4752-30.952 6.8477-47.451 2.7906-1.094 5.6966-1.8584 8.744-2.251zm154.69 46.1c-1.1119 7.0854-2.0819 13.443-3.0902 19.899-5.9424 13.673-10.345 24.756-12.818 31.199 2.5984-12.351 7.5998-32.367 15.908-51.098z" fill="url(#d)"/>
 </g>
 <g stroke-linecap="round" stroke-linejoin="bevel" stroke-width="4">
  <path d="m-10.448 243.44s11.015-257.95 105-213.2c-91.946-27.65-98.19 214.65-98.19 214.65l-6.8108-1.4552z" fill="#4e9a06"/>
  <path d="m-5.9071 244.89s11.015-257.95 105-213.2c-91.946-27.65-98.19 214.65-98.19 214.65l-6.8108-1.4553z" fill="#73d216"/>
  <path d="m329.14 245.62s-7.946-173.9 74.919-191.37c-70.946 26.195-70.946 192.1-70.946 192.1l-3.9729-0.7277z" fill="#73d216"/>
  <path d="m324.59 244.89s-8.5136-170.99 74.352-188.46c-73.216 21.829-70.379 189.18-70.379 189.18l-3.9729-0.7277z" fill="#4e9a06"/>
  <path d="m106.05 244.67s8.538-148.72 81.389-122.92c-71.27-15.942-76.11 123.76-76.11 123.76l-5.2793-0.839z" fill="#4e9a06"/>
  <path d="m109.57 245.51s8.5379-148.72 81.389-122.92c-71.27-15.942-76.11 123.76-76.11 123.76l-5.2792-0.839z" fill="#73d216"/>
  <path d="m205.03 242.93s44.677-207.4 109.37-227.97c-57.217 44.167-102.56 229.42-102.56 229.42l-6.8108-1.4552z" fill="#4e9a06"/>
  <path d="m209.97 244.89s45.977-204.98 105.4-231.02c-55.792 40.602-98.587 232.48-98.587 232.48l-6.8108-1.4552z" fill="#73d216"/>
  <path d="m116.58 244.89s19.74-101.1 54.086-164.22c12.065-22.172 32.686-0.43906 48.133-7.2096-14.066 10.236-33.428-10.428-44.419 11.602-32.608 65.354-50.989 161.28-50.989 161.28l-6.8108-1.4552z" fill="#73d216"/>
  <path d="m113.01 242.86s19.74-101.1 54.086-164.22c12.065-22.173 35.865 0.57964 51.312-6.191-14.066 10.236-37.003-11.956-47.995 10.074-32.608 65.354-50.592 161.79-50.592 161.79l-6.8108-1.4554z" fill="#4e9a06"/>
  <path d="m346.05 242.65s0.074982-60.043 34.421-123.16c12.065-22.172 35.002 36.552 48.201 41.306-14.066-20.738-33.496-58.944-44.488-36.914-32.608 65.354-31.324 120.22-31.324 120.22l-6.8108-1.4552z" fill="#4e9a06"/>
  <path d="m350.62 244.89s0.074951-60.043 34.421-123.16c12.065-22.172 33.81 36.297 47.009 41.052-14.066-20.738-32.304-58.689-43.296-36.659-32.608 65.354-31.324 120.22-31.324 120.22l-6.8108-1.4552z" fill="#73d216"/>
  <g transform="matrix(.22255 -.063132 .043047 .38112 -23.49 949.34)">
   <path d="m472.82-1770.6c1.4286-8.5715 181.85-620.62 181.85-620.62l62.857-111.43-224.7 739.19-20-7.1428z" fill="#4e9a06"/>
   <path d="m507.73-1760.4c3.3721-8.0087 190.26-621.63 190.26-621.63l20.44-134.12-231.42 751.1 20.722 4.6479z" fill="#73d216"/>
  </g>
  <g transform="matrix(.27845 -.030756 .025924 .38575 336.35 1033)">
   <path d="m343.64-2021.4c1.4286-8.5713 106.66-366.58 106.66-366.58l62.857-111.43-149.52 485.15-20-7.1429z" fill="#4e9a06"/>
   <path d="m382.92-2008.8c3.3721-8.0087 110.71-369.96 110.71-369.96l20.44-134.12-154.54 497.23 23.388 6.8511z" fill="#73d216"/>
  </g>
  <g transform="matrix(.27888 -.023413 .019735 .38635 9.5324 1029.5)">
   <path d="m281.97-2020c1.4285-8.5713 106.66-366.58 106.66-366.58l62.857-111.43-149.52 485.15-20-7.1429z" fill="#4e9a06"/>
   <path d="m321.24-2007.5c3.3721-8.0087 110.71-369.96 110.71-369.96l20.44-134.12-154.54 497.23 23.388 6.8511z" fill="#73d216"/>
  </g>
  <g transform="matrix(1.1122 .20592 -.16062 1.4258 217.29 299.11)">
   <path d="m-73.267-29.898s9.802-179.05 93.439-147.99c-81.822-19.193-87.378 149-87.378 149l-6.0609-1.0101z" fill="#4e9a06"/>
   <path d="m-69.226-28.888s9.802-179.05 93.439-147.99c-81.822-19.193-87.378 149-87.378 149l-6.0609-1.0101z" fill="#73d216"/>
  </g>
  <g transform="matrix(1.1122 .20592 -.16062 1.4258 5.8776 280.4)">
   <path d="m17.142-27.372s-7.0711-120.71 66.67-132.84c-63.135 18.183-63.135 133.34-63.135 133.34l-3.5355-0.5051z" fill="#73d216"/>
   <path d="m13.101-27.878s-7.5762-118.69 66.165-130.82c-65.155 15.152-62.63 131.32-62.63 131.32l-3.5355-0.5051z" fill="#4e9a06"/>
  </g>
  <g transform="matrix(1.1122 .20592 -.16062 1.4258 156.76 279.78)">
   <path d="m81.59-37.528s7.5979-103.23 72.427-85.322c-63.423-11.066-67.729 85.904-67.729 85.904l-4.698-0.5824z" fill="#4e9a06"/>
   <path d="m84.722-36.945s7.5978-103.23 72.427-85.322c-63.423-11.066-67.729 85.904-67.729 85.904l-4.698-0.5824z" fill="#73d216"/>
  </g>
  <g transform="matrix(1.1228 -.058802 .045866 1.4394 7.6282 320.39)">
   <path d="m62.538-50.488s9.8021-179.05 93.439-147.99c-81.822-19.193-87.378 149-87.378 149l-6.0609-1.0101z" fill="#4e9a06"/>
   <path d="m66.578-49.477s9.802-179.05 93.439-147.99c-81.822-19.193-87.378 149-87.378 149l-6.0609-1.0101z" fill="#73d216"/>
  </g>
  <g transform="matrix(1.1228 -.058802 .045866 1.4394 -53.297 323.86)">
   <path d="m152.95-47.962s-7.0711-120.71 66.67-132.84c-63.135 18.183-63.135 133.34-63.135 133.34l-3.5355-0.5051z" fill="#73d216"/>
   <path d="m148.91-48.467s-7.5761-118.69 66.165-130.82c-65.155 15.152-62.63 131.32-62.63 131.32l-3.5355-0.5051z" fill="#4e9a06"/>
  </g>
  <g transform="matrix(1.1228 -.058802 .045866 1.4394 148.48 341.57)">
   <path d="m217.39-58.117s7.5979-103.23 72.428-85.322c-63.423-11.066-67.73 85.904-67.73 85.904l-4.698-0.5824z" fill="#4e9a06"/>
   <path d="m220.53-57.535s7.5978-103.23 72.427-85.322c-63.423-11.066-67.73 85.904-67.73 85.904l-4.698-0.5824z" fill="#73d216"/>
  </g>
  <g transform="matrix(1.1171 .1559 -.12161 1.4322 48.261 272.57)">
   <path d="m169.99-40.325s39.758-143.96 97.328-158.24c-50.917 30.658-91.267 159.25-91.267 159.25l-6.0609-1.0101z" fill="#4e9a06"/>
   <path d="m174.38-38.961s40.915-142.28 93.793-160.36c-49.649 28.183-87.732 161.37-87.732 161.37l-6.0609-1.0101z" fill="#73d216"/>
  </g>
  <g transform="matrix(1.1171 .1559 -.12161 1.4322 -103.28 263.93)">
   <path d="m257.38-41.961s17.567-70.178 48.131-113.99c10.736-15.391 29.087-0.30475 42.833-5.0045-12.517 7.1052-29.747-7.2383-39.528 8.0535-29.017 45.364-45.375 111.95-45.375 111.95l-6.0609-1.0101z" fill="#73d216"/>
   <path d="m254.2-43.376s17.567-70.178 48.131-113.99c10.736-15.391 31.916 0.40234 45.662-4.2974-12.517 7.1052-32.929-8.299-42.71 6.9929-29.017 45.364-45.021 112.31-45.021 112.31l-6.0609-1.0102z" fill="#4e9a06"/>
  </g>
  <g transform="matrix(1.1171 .1559 -.12161 1.4322 -282.22 243.42)">
   <path d="m334.32-38.022s0.066711-41.678 30.631-85.492c10.736-15.391 31.148 25.372 42.894 28.672-12.517-14.395-29.808-40.915-39.589-25.623-29.017 45.364-27.875 83.453-27.875 83.453l-6.0609-1.0101z" fill="#4e9a06"/>
   <path d="m338.38-36.461s0.066711-41.678 30.631-85.492c10.736-15.391 30.087 25.195 41.833 28.496-12.517-14.395-28.747-40.738-38.528-25.446-29.017 45.364-27.875 83.453-27.875 83.453l-6.0609-1.0101z" fill="#73d216"/>
  </g>
  <g transform="matrix(1.1036 .27142 -.21172 1.4148 -88.178 245.96)">
   <path d="m111.31-25.458s39.758-143.96 97.328-158.24c-50.917 30.658-91.267 159.25-91.267 159.25l-6.0609-1.0101z" fill="#4e9a06"/>
   <path d="m115.7-24.094s40.915-142.28 93.793-160.36c-49.649 28.183-87.732 161.37-87.732 161.37l-6.0609-1.0101z" fill="#73d216"/>
  </g>
  <g transform="matrix(1.1036 .27142 -.21172 1.4148 -7.1428 227.68)">
   <path d="m198.7-27.094s17.567-70.178 48.131-113.99c10.736-15.391 29.087-0.30475 42.833-5.0045-12.517 7.1052-29.747-7.2383-39.528 8.0535-29.017 45.364-45.375 111.95-45.375 111.95l-6.0609-1.0101z" fill="#73d216"/>
   <path d="m195.52-28.508s17.567-70.178 48.131-113.99c10.736-15.391 31.916 0.40234 45.662-4.2974-12.517 7.1052-32.929-8.299-42.71 6.9929-29.017 45.364-45.021 112.31-45.021 112.31l-6.0609-1.0102z" fill="#4e9a06"/>
  </g>
  <g transform="matrix(1.1036 .27142 -.21172 1.4148 -167.75 197.91)">
   <path d="m275.64-23.154s0.066711-41.678 30.631-85.492c10.736-15.391 31.148 25.372 42.894 28.672-12.517-14.395-29.808-40.915-39.589-25.623-29.017 45.364-27.875 83.453-27.875 83.453l-6.0609-1.0101z" fill="#4e9a06"/>
   <path d="m279.7-21.594s0.06665-41.678 30.631-85.492c10.736-15.391 30.087 25.195 41.833 28.496-12.517-14.395-28.747-40.738-38.528-25.446-29.017 45.364-27.875 83.453-27.875 83.453l-6.0609-1.0101z" fill="#73d216"/>
  </g>
  <g transform="matrix(.27922 .015628 -.013173 .38681 259.41 1012.6)">
   <path d="m-43.835-1993.3c1.4286-8.5713 106.66-366.58 106.66-366.58l62.857-111.43-149.52 485.15-20-7.1429z" fill="#4e9a06"/>
   <path d="m-4.564-1980.8c3.3721-8.0087 110.71-369.96 110.71-369.96l20.44-134.12-154.54 497.23 23.388 6.8511z" fill="#73d216"/>
  </g>
  <g transform="matrix(.24283 -.038048 .028024 .38499 330.14 936.79)">
   <path d="m287.16-1771.7c1.4286-8.5714 181.85-620.62 181.85-620.62l62.857-111.43-224.7 739.19-20-7.1428z" fill="#4e9a06"/>
   <path d="m322.07-1761.6c3.3721-8.0087 190.26-621.63 190.26-621.63l20.44-134.12-231.42 751.1 20.722 4.6479z" fill="#73d216"/>
  </g>
  <g transform="matrix(.279 .021102 -.017787 .38651 168.07 1010.5)">
   <path d="m-89.232-1987c1.4286-8.5715 106.66-366.58 106.66-366.58l62.857-111.43-149.52 485.15-20-7.1428z" fill="#4e9a06"/>
   <path d="m-49.962-1974.4c3.3721-8.0087 110.71-369.96 110.71-369.96l20.44-134.12-154.54 497.23 23.388 6.8511z" fill="#73d216"/>
  </g>
  <path d="m436.56 243.44s11.015-257.95 105-213.2c-91.946-27.65-98.19 214.65-98.19 214.65l-6.8109-1.4552z" fill="#4e9a06"/>
  <path d="m441.1 244.89s11.015-257.95 105-213.2c-91.946-27.65-98.19 214.65-98.19 214.65l-6.8108-1.4553z" fill="#73d216"/>
  <path d="m714.48 245.62s-7.946-173.9 74.919-191.37c-70.946 26.195-70.946 192.1-70.946 192.1l-3.973-0.7277z" fill="#73d216"/>
  <path d="m709.94 244.89s-8.5136-170.99 74.352-188.46c-73.216 21.829-70.378 189.18-70.378 189.18l-3.973-0.7277z" fill="#4e9a06"/>
  <path d="m529.76 244.67s8.538-148.72 81.389-122.92c-71.27-15.942-76.11 123.76-76.11 123.76l-5.2793-0.839z" fill="#4e9a06"/>
  <path d="m533.28 245.51s8.538-148.72 81.389-122.92c-71.27-15.942-76.11 123.76-76.11 123.76l-5.2792-0.839z" fill="#73d216"/>
  <path d="m512.51 242.93s44.677-207.4 109.37-227.97c-57.217 44.167-102.56 229.42-102.56 229.42l-6.8109-1.4552z" fill="#4e9a06"/>
  <path d="m517.45 244.89s45.977-204.98 105.4-231.02c-55.792 40.602-98.587 232.48-98.587 232.48l-6.8108-1.4552z" fill="#73d216"/>
  <path d="m549.81 244.89s19.74-101.1 54.086-164.22c12.065-22.172 32.686-0.43906 48.133-7.2096-14.065 10.236-33.428-10.428-44.419 11.602-32.608 65.354-50.989 161.28-50.989 161.28l-6.8108-1.4552z" fill="#73d216"/>
  <path d="m546.23 242.86s19.74-101.1 54.086-164.22c12.065-22.173 35.864 0.57964 51.311-6.191-14.065 10.236-37.003-11.956-47.995 10.074-32.608 65.354-50.592 161.79-50.592 161.79l-6.8107-1.4554z" fill="#4e9a06"/>
  <path d="m478.83 242.65s0.074982-60.043 34.421-123.16c12.065-22.172 35.002 36.552 48.201 41.306-14.066-20.738-33.496-58.944-44.487-36.914-32.608 65.354-31.324 120.22-31.324 120.22l-6.8109-1.4552z" fill="#4e9a06"/>
  <path d="m483.4 244.89s0.07489-60.043 34.421-123.16c12.065-22.172 33.81 36.297 47.009 41.052-14.066-20.738-32.304-58.689-43.296-36.659-32.608 65.354-31.324 120.22-31.324 120.22l-6.8108-1.4552z" fill="#73d216"/>
  <g transform="matrix(.22255 -.063132 .043047 .38112 645.84 949.34)">
   <path d="m472.82-1770.6c1.4286-8.5715 181.85-620.62 181.85-620.62l62.857-111.43-224.7 739.19-20-7.1428z" fill="#4e9a06"/>
   <path d="m507.73-1760.4c3.3721-8.0087 190.26-621.63 190.26-621.63l20.44-134.12-231.42 751.1 20.722 4.6479z" fill="#73d216"/>
  </g>
  <g transform="matrix(.27845 -.030756 .025924 .38575 677.72 1033)">
   <path d="m343.65-2021.4c1.4286-8.5713 106.66-366.58 106.66-366.58l62.857-111.43-149.52 485.15-20-7.1429z" fill="#4e9a06"/>
   <path d="m382.92-2008.8c3.3721-8.0087 110.71-369.96 110.71-369.96l20.44-134.12-154.54 497.23 23.388 6.8511z" fill="#73d216"/>
  </g>
  <g transform="matrix(.27888 -.023413 .019735 .38635 515.21 1029.5)">
   <path d="m281.97-2020c1.4286-8.5713 106.66-366.58 106.66-366.58l62.857-111.43-149.52 485.15-20-7.1429z" fill="#4e9a06"/>
   <path d="m321.24-2007.5c3.3721-8.0087 110.71-369.96 110.71-369.96l20.44-134.12-154.54 497.23 23.388 6.8511z" fill="#73d216"/>
  </g>
  <g transform="matrix(1.1122 .20592 -.16062 1.4258 648.44 299.11)">
   <path d="m-73.266-29.898s9.802-179.05 93.439-147.99c-81.822-19.193-87.378 149-87.378 149l-6.0609-1.0101z" fill="#4e9a06"/>
   <path d="m-69.226-28.888s9.802-179.05 93.439-147.99c-81.822-19.193-87.378 149-87.378 149l-6.0609-1.0101z" fill="#73d216"/>
  </g>
  <g transform="matrix(1.1122 .20592 -.16062 1.4258 475.16 280.4)">
   <path d="m17.142-27.372s-7.0711-120.71 66.67-132.84c-63.135 18.183-63.135 133.34-63.135 133.34l-3.5355-0.5051z" fill="#73d216"/>
   <path d="m13.102-27.878s-7.5762-118.69 66.165-130.82c-65.155 15.152-62.63 131.32-62.63 131.32l-3.5355-0.5051z" fill="#4e9a06"/>
  </g>
  <g transform="matrix(1.1122 .20592 -.16062 1.4258 524.56 279.78)">
   <path d="m81.59-37.528s7.5979-103.23 72.427-85.322c-63.423-11.066-67.729 85.904-67.729 85.904l-4.698-0.5824z" fill="#4e9a06"/>
   <path d="m84.722-36.945s7.5978-103.23 72.427-85.322c-63.423-11.066-67.729 85.904-67.729 85.904l-4.698-0.5824z" fill="#73d216"/>
  </g>
  <g transform="matrix(1.1228 -.058802 .045866 1.4394 336.57 320.39)">
   <path d="m62.538-50.488s9.8021-179.05 93.439-147.99c-81.822-19.193-87.378 149-87.378 149l-6.0609-1.0101z" fill="#4e9a06"/>
   <path d="m66.578-49.477s9.802-179.05 93.439-147.99c-81.822-19.193-87.378 149-87.378 149l-6.0609-1.0101z" fill="#73d216"/>
  </g>
  <g transform="matrix(1.1228 -.058802 .045866 1.4394 523.66 323.86)">
   <path d="m152.95-47.962s-7.0711-120.71 66.67-132.84c-63.135 18.183-63.135 133.34-63.135 133.34l-3.5355-0.5051z" fill="#73d216"/>
   <path d="m148.91-48.467s-7.5762-118.69 66.165-130.82c-65.155 15.152-62.63 131.32-62.63 131.32l-3.5355-0.5051z" fill="#4e9a06"/>
  </g>
  <g transform="matrix(1.1228 -.058802 .045866 1.4394 423.14 341.57)">
   <path d="m217.39-58.117s7.5979-103.23 72.427-85.322c-63.423-11.066-67.729 85.904-67.729 85.904l-4.698-0.5824z" fill="#4e9a06"/>
   <path d="m220.53-57.535s7.5978-103.23 72.427-85.322c-63.423-11.066-67.729 85.904-67.729 85.904l-4.698-0.5824z" fill="#73d216"/>
  </g>
  <g transform="matrix(1.1171 .1559 -.12161 1.4322 427.44 272.57)">
   <path d="m169.99-40.325s39.758-143.96 97.328-158.24c-50.917 30.658-91.267 159.25-91.267 159.25l-6.0609-1.0101z" fill="#4e9a06"/>
   <path d="m174.38-38.961s40.915-142.28 93.793-160.36c-49.649 28.183-87.732 161.37-87.732 161.37l-6.0609-1.0101z" fill="#73d216"/>
  </g>
  <g transform="matrix(1.1171 .1559 -.12161 1.4322 160.52 263.93)">
   <path d="m257.38-41.961s17.567-70.178 48.131-113.99c10.736-15.391 29.087-0.30475 42.833-5.0045-12.517 7.1052-29.747-7.2383-39.528 8.0535-29.017 45.364-45.375 111.95-45.375 111.95l-6.0609-1.0101z" fill="#73d216"/>
   <path d="m254.2-43.376s17.567-70.178 48.131-113.99c10.736-15.391 31.916 0.40234 45.662-4.2974-12.517 7.1052-32.929-8.299-42.71 6.9929-29.017 45.364-45.021 112.31-45.021 112.31l-6.0609-1.0102z" fill="#4e9a06"/>
  </g>
  <g transform="matrix(1.1171 .1559 -.12161 1.4322 330.86 243.42)">
   <path d="m334.32-38.022s0.066711-41.678 30.631-85.492c10.736-15.391 31.148 25.372 42.894 28.672-12.517-14.395-29.808-40.915-39.589-25.623-29.017 45.364-27.875 83.453-27.875 83.453l-6.0609-1.0101z" fill="#4e9a06"/>
   <path d="m338.38-36.461s0.06665-41.678 30.631-85.492c10.736-15.391 30.087 25.195 41.833 28.496-12.517-14.395-28.747-40.738-38.528-25.446-29.017 45.364-27.875 83.453-27.875 83.453l-6.0609-1.0101z" fill="#73d216"/>
  </g>
  <g transform="matrix(1.1036 .27142 -.21172 1.4148 453.81 245.96)">
   <path d="m111.31-25.458s39.758-143.96 97.328-158.24c-50.917 30.658-91.267 159.25-91.267 159.25l-6.0609-1.0101z" fill="#4e9a06"/>
   <path d="m115.7-24.094s40.915-142.28 93.793-160.36c-49.649 28.183-87.732 161.37-87.732 161.37l-6.0609-1.0101z" fill="#73d216"/>
  </g>
  <g transform="matrix(1.1036 .27142 -.21172 1.4148 338.83 227.68)">
   <path d="m198.7-27.094s17.567-70.178 48.131-113.99c10.736-15.391 29.087-0.30475 42.833-5.0045-12.517 7.1052-29.747-7.2383-39.528 8.0535-29.017 45.364-45.375 111.95-45.375 111.95l-6.0609-1.0101z" fill="#73d216"/>
   <path d="m195.52-28.508s17.567-70.178 48.131-113.99c10.736-15.391 31.916 0.40234 45.662-4.2974-12.517 7.1052-32.929-8.299-42.71 6.9929-29.017 45.364-45.021 112.31-45.021 112.31l-6.0609-1.0102z" fill="#4e9a06"/>
  </g>
  <g transform="matrix(1.1036 .27142 -.21172 1.4148 434.98 197.91)">
   <path d="m275.64-23.154s0.066711-41.678 30.631-85.492c10.736-15.391 31.148 25.372 42.894 28.672-12.517-14.395-29.808-40.915-39.589-25.623-29.017 45.364-27.875 83.453-27.875 83.453l-6.0609-1.0101z" fill="#4e9a06"/>
   <path d="m279.7-21.594s0.066681-41.678 30.631-85.492c10.736-15.391 30.087 25.195 41.833 28.496-12.517-14.395-28.747-40.738-38.528-25.446-29.017 45.364-27.875 83.453-27.875 83.453l-6.0609-1.0101z" fill="#73d216"/>
  </g>
  <g transform="matrix(.27922 .015628 -.013173 .38681 395.53 1012.6)">
   <path d="m-43.835-1993.3c1.4286-8.5713 106.66-366.58 106.66-366.58l62.857-111.43-149.52 485.15-20-7.1429z" fill="#4e9a06"/>
   <path d="m-4.5642-1980.8c3.3721-8.0087 110.71-369.96 110.71-369.96l20.44-134.12-154.54 497.23 23.388 6.8511z" fill="#73d216"/>
  </g>
  <g transform="matrix(.24283 -.038048 .028024 .38499 441.67 936.79)">
   <path d="m287.16-1771.7c1.4286-8.5714 181.85-620.62 181.85-620.62l62.857-111.43-224.7 739.19-20-7.1428z" fill="#4e9a06"/>
   <path d="m322.07-1761.6c3.3721-8.0087 190.26-621.63 190.26-621.63l20.44-134.12-231.42 751.1 20.722 4.6479z" fill="#73d216"/>
  </g>
  <g transform="matrix(.279 .021102 -.017787 .38651 718.47 1010.5)">
   <path d="m-89.233-1987c1.4286-8.5715 106.66-366.58 106.66-366.58l62.857-111.43-149.52 485.15-20-7.1428z" fill="#4e9a06"/>
   <path d="m-49.962-1974.4c3.3721-8.0087 110.71-369.96 110.71-369.96l20.44-134.12-154.54 497.23 23.388 6.8511z" fill="#73d216"/>
  </g>
 </g>
 <rect x="-10.07" y="54.921" width="777.57" height="189.48" fill="url(#c)" stroke-linecap="round" stroke-linejoin="bevel" stroke-width="4"/>
 <line x1="172.62" x2="173.41" y1="54.706" y2="54.706" fill="none" stroke="#000" stroke-width="5"/>
</svg>
