<?xml version="1.0" encoding="UTF-8"?>
<svg viewBox="0 0 984.20447 690.0647" xmlns="http://www.w3.org/2000/svg">
 <g transform="translate(1639.3 122.27)">
  <path d="m-753.4 337.45s30-27.143 38.571-34.286 14.286-1.4286 27.143-30 28.571-54.286 28.571-60-7.1429-37.143-7.1429-47.143-4.2857-28.571-8.5714-40-48.571-62.857-48.571-62.857l-75.714-144.29-57.143-27.143h-45.714l-41.429-10-94.286 17.143-47.143 31.429-48.572 50s-31.428 24.286-45.714 31.429-40 28.571-40 28.571l-8.5715 44.286-42.857 85.714s-84.286 44.286-84.286 68.571 27.143 80 31.428 85.714-7.1428 95.714-4.2857 104.29 101.43 41.429 101.43 41.429l110-7.1428s72.857-17.143 82.857-20 34.286-1.4286 34.286-1.4286 50-1.4286 60-1.4286 122.86-35.714 122.86-35.714l68.571-62.857-2.8571-18.571z" fill="#b2b2b2" stroke="#000" stroke-width="8"/>
  <path d="m-1234.9 113.64c-23.101 23.176-26.347 64.567-61.114 77.277-19.319 15.186-50.298 26.421-56.442 52.149 2.0386 32.943 27.669 60.089 31.15 91.661-1.215 31.791-4.1887 64.134-4.1282 95.596 44.088 12.685 85.866 44.513 133.71 33.304 60.168 0.27288 117.68-19.688 177.17-24.087 35.192 11.13 27.795-18.672 24.812-42.54 0.3207-20.811 0.2127-42.268-26.158-43.854-19.75-11.617-49.955-16.655-60.021-38.991-3.3681-20.78 9.8682-39.603 17.93-56.821-50.786-24.466-100.84-50.981-144.58-86.747-24.41-6.6811-27.189-34.566-29.042-55.685-0.6539-1.1368-2.0331-1.738-3.283-1.2627z" fill="#999"/>
  <path d="m-941.74-110.91c-13.476 2.881-35.587 0.83083-44.826 10.354 29.59 4.4423 71.929 5.0668 81.57 40.28 11.914 39.141 57.42 51.629 86.208 75.583 30.777 17.259 58.39 44.19 91.705 54.979 6.08-9.2993-10.933-23.024-12.5-33.216-19.638-38.396-39.423-76.903-59.852-114.77-32.888-17.278-67.914-30.801-105.67-28.532-12.424-0.26974-24.144-5.7564-36.635-4.6765z" fill="#cacaca"/>
 </g>
 <g transform="translate(677.03 630.79)">
  <path d="m-598.75-50.241-25.714-10-42.857-34.286-5.7143-52.857 30-62.857 4.2857-27.143 25.714-21.429 18.571-55.714 28.571-21.429 5.7143-27.143 31.429-45.714 30-58.571 15.714-15.714 105.71 11.429s28.571-2.8571 34.286-2.8571 67.143 21.429 74.286 25.714 22.857 5.7143 22.857 5.7143l41.429 14.286 50 12.857 10 67.143s14.286 12.857 15.714 20 4.2857 55.714 4.2857 55.714l12.857 38.571 17.143 41.429-15.714 42.857-17.143 44.286-47.143 67.143s-95.714 7.1429-101.43 7.1429-104.29-7.1429-104.29-7.1429l-58.571-7.1428-28.571-2.8572-41.429 18.571-37.143-11.429z" fill="#b2b2b2" stroke="#000" stroke-width="8"/>
  <path d="m-262.46-441.44c-27.402 10.465-39.701 42.881-58.589 63.892-12.873 12.897-13.611 36.295 6.8185 42.048 32.38 21.345 73.541 25.344 105.56 45.457 20.865 18.05 17.126 54.371 46.72 64.524 20.104 9.4029 39.23 27.47 60.862 30.683-3.447-22.471-17.998-45.584-21.725-69.318-9.0272-27.377-3.053-59.796-22.343-82.836-7.3115-21.459-7.2988-44.89-12.501-66.544-35.593-6.334-69.069-24.158-104.8-27.905z" fill="#cacaca"/>
  <path d="m-468.28-477.91c-32.698-0.73421-36.677 40.843-53.286 60.862-16.459 27.062-35.151 53.088-43.942 83.464-15.271 14.04-33.132 26.864-36.239 49.624-2.9905 26.216-28.833 39.058-36.997 61.872-7.4087 39.128-40.842 73.366-26.39 115.54 9.324 26.288 39.751 39.015 63.261 50.508 33.109 5.6194 66.066 20.276 99.753 18.183 29.284-18.216 63.142-12.316 95.207-7.3236-0.54079-19.625 2.6673-45.196-4.8584-63.612-31.414-33.387-64.478-69.893-112.19-77.631-17.532-2.4774-10.931-29.58-9.35-42.984 40.795 15.154 86.048 25.436 129.8 21.466 19.097-4.0863 21.537-27.944 6.6923-39.017-15.332-16.302-43.921-41.685-28.537-65.534 9.6916 0.20958 23.849 18.005 29.673 1.0102 2.9866-15.641 25.296-39.038 7.5761-52.149-25.642-12.359-56.001-14.342-78.413-33.714 9.1025-25.521 22.309-50.778 30.305-75.888-10.436-2.9937-21.12-5.5522-32.072-4.672z" fill="#999"/>
 </g>
 <g transform="translate(1087.6 -175.25)">
  <path d="m-445.71 546.65-5.7143-60 17.143-17.143h94.286l14.286 22.857 45.714 22.857 34.286 34.286 42.857 54.286 51.429 31.429-28.571 40-31.429 22.857-37.143 34.286-54.286-8.5714-108.57-40s-42.857-77.143-54.286-77.143-17.143 8.5714-17.143-2.8571 37.143-57.143 37.143-57.143z" fill="#b2b2b2" stroke="#000" stroke-width="8"/>
  <path d="m-363.96 474.21c-15.008-0.0584-14.465 21.272-14.554 32.054 7.1373 21.332 36.146 20.811 51.161 34.286 29.915 19.774 54.227 46.354 80.179 71.071-9.0169 28.917-3.0746 61.039 13.036 85.982 9.4711 13.091 19.331-4.4474 27.711-9.0635 18.455-13.582 36.967-30.893 46.128-51.829-24.113-16.729-51.306-30.413-67.173-56.651-25.382-34.337-56.633-64.705-95.774-82.189-13.427-5.5342-13.912-27.869-32.054-23.75-2.8864 0.0425-5.7777-0.0999-8.6607 0.0893z" fill="#cacaca"/>
 </g>
 <g transform="translate(1621.9 -238.1)">
  <path d="m-764.24 786.49-8.5714-88.571-34.286-55.714-64.286-34.286-51.429-20-68.571-7.1428s-52.857-1.4286-64.286 0-57.143 21.429-57.143 21.429l-42.857 48.571s-8.5715 30-14.286 34.286-17.143 34.286-17.143 34.286 11.429 50 11.429 55.714 34.286 52.857 40 52.857 107.14-2.8572 114.29-5.7143 41.429-14.286 41.429-14.286l52.857 7.1428s31.429-2.8571 37.143-2.8571 48.571 5.7143 48.571 5.7143l40-14.286z" fill="#cacaca" stroke="#000" stroke-width="8"/>
  <path d="m-1121 637.44c-28.619-2.0887-36.372 29.166-45.71 49.371-11.306 19.105-23.471 38.003-13.006 60.483 6.4211 28.561 19.656 61.081 45.583 76.393 51.374 2.5853 103.56-2.6962 152.91-16.92 29.812-0.40486 64.256 11.871 90.914-1.894-29.332-21.766-63.594-39.483-89.974-63.694-14.972-30.458-24.111-65.996-44.124-93.006-31.029-8.9858-64.376-10.564-96.596-10.733z" fill="#b2b2b2"/>
 </g>
 <g transform="translate(773.35 -406.68)">
  <path d="m-598.57 1035.2 4.2857-27.143 12.857-21.429-17.143-21.429-10-8.5714s-25.714-22.857-32.857-22.857-20 8.5714-25.714 11.429-18.571 2.8572-18.571 10-15.714 28.571-15.714 28.571-21.429 20-21.429 30 2.8572 27.143 11.429 27.143 44.286-1.4286 44.286-1.4286l11.429 14.286s21.429 8.5714 28.571 1.4285 28.571-20 28.571-20z" fill="#b2b2b2" stroke="#000" stroke-width="8"/>
  <path d="m-694.29 989.51-17.143 20 11.429 22.857h51.429z" fill="#999"/>
 </g>
 <g transform="translate(1087.6 16.182)">
  <path d="m-728.57 606.65s-14.286-18.571-14.286-28.571 2.8571-21.429-4.2857-24.286-75.714-20-81.429-20-62.857 20-62.857 20-27.143 17.143-32.857 21.429-17.143 8.5714-21.429 22.857-11.429 30-11.429 30 10 30 15.714 30 80 14.286 88.571 11.429 20-11.429 31.429-11.429 57.143 5.7143 64.286 5.7143 27.143-11.429 27.143-20 1.4286-37.143 1.4286-37.143z" fill="#cacaca" stroke="#000" stroke-width="8"/>
  <path d="m-868.57 572.36h34.286c14.286 0 42.857 20 42.857 20l20 34.286 22.857 5.7143 11.429-8.5714-28.571-60-60-20-54.286 34.286z" fill="#e4e4e4"/>
 </g>
 <g transform="translate(1610.5 -55.247)">
  <path d="m-1087.1 668.08s10-25.714 10-35.714-1.4285-44.286-1.4285-44.286-22.857-10-25.714-15.714-10-21.429-15.714-27.143-30-31.429-30-31.429l-77.143 10-41.428 32.857s-25.714 20-25.714 28.571v40s17.143 18.571 18.571 25.714 14.286 30 20 30 60-14.286 67.143-12.857 38.571 2.8572 38.571 2.8572z" fill="#e4e4e4" stroke="#000" stroke-width="8"/>
  <path d="m-1222.9 546.65c0 11.429 42.857 31.429 42.857 48.571s51.429 48.571 51.429 48.571l22.857 5.7143-25.714-60 22.857-17.143-37.143-48.571-20 57.143-20-45.714z" fill="#f2f2f2"/>
 </g>
 <g transform="matrix(.99904 -.04386 .04386 .99904 1241.4 23.338)">
  <path d="m-545.71 598.08-7.1428-28.571 1.4286-18.571-8.5714-32.857-10-28.571-34.286-27.143-7.1429-12.857-44.286-24.286-55.714 1.4286-22.857 21.429-32.857 10-20 18.571s-18.571 10-24.286 17.143-18.571 20-20 27.143-7.1429 25.714-7.1429 25.714l-5.7143 20 8.5714 22.857 44.286 5.7143 30 5.7143 122.86 8.5714 81.429 1.4286z" fill="#e4e4e4" stroke="#000" stroke-width="8"/>
  <path d="m-637.14 460.93s-25.714-2.8571-37.143-2.8571-40 2.8571-22.857 11.429 37.143 11.429 54.286 20 37.143 34.286 37.143 34.286l14.286 5.7143-8.5714-45.714z" fill="#f2f2f2"/>
 </g>
 <g transform="translate(847.63 -283.82)">
  <path d="m-63.64 884.68c0-4.0406-3.0305-32.325-3.0305-32.325l-30.305-23.234s-20.203-4.0406-26.264-5.0508-18.183-9.0914-22.223 4.0406-7.0711 21.213-7.0711 21.213l-21.213 26.264s12.122 25.254 16.162 26.264 43.437 2.0203 43.437 2.0203h39.396z" fill="#e6e6e6" stroke="#000" stroke-width="8"/>
  <path d="m-115.16 832.15c-2.0203 4.0406-1.0102 10.102 0 15.152s1.0102 4.0406 6.0609 9.0914 28.284 13.132 28.284 13.132l4.0406-19.193-21.213-12.122z" fill="#f2f2f2"/>
 </g>
</svg>
